<svg width="20" height="20" viewBox="0 0 20 20" fill="none" xmlns="http://www.w3.org/2000/svg">
<path fill-rule="evenodd" clip-rule="evenodd" d="M18.3333 3.33203C17.6833 3.71786 16.3791 4.2437 15.6125 4.39536C15.59 4.4012 15.5716 4.4087 15.55 4.41453C14.8725 3.7462 13.9441 3.33203 12.9166 3.33203C10.8458 3.33203 9.16663 5.0112 9.16663 7.08203C9.16663 7.1912 9.15746 7.39203 9.16663 7.4987C6.37246 7.4987 4.24579 6.03536 2.72079 4.16536C2.55496 4.58203 2.48246 5.24036 2.48246 5.8587C2.48246 7.0262 3.39496 8.17286 4.81579 8.8837C4.55413 8.9512 4.26579 8.99953 3.96579 8.99953C3.48163 8.99953 2.96913 8.87203 2.49996 8.48536C2.49996 8.49953 2.49996 8.51287 2.49996 8.52786C2.49996 10.1595 4.23163 11.2704 5.77163 11.5795C5.45913 11.7637 4.82913 11.782 4.52163 11.782C4.30496 11.782 3.53829 11.6829 3.33329 11.6445C3.76163 12.982 5.30663 13.7337 6.77913 13.7604C5.62746 14.6637 4.82829 14.9987 2.46996 14.9987H1.66663C3.15663 15.9537 5.05413 16.6662 6.95579 16.6662C13.1475 16.6662 16.6666 11.947 16.6666 7.4987C16.6666 7.42703 16.665 7.27703 16.6625 7.1262C16.6625 7.1112 16.6666 7.09703 16.6666 7.08203C16.6666 7.05953 16.66 7.03786 16.66 7.01536C16.6575 6.90203 16.655 6.7962 16.6525 6.7412C17.3108 6.2662 17.8816 5.6737 18.3333 4.9987C17.7291 5.26703 17.0808 5.44703 16.4 5.5287C17.095 5.11203 18.0825 4.1187 18.3333 3.33203Z" fill="#151515"/>
</svg>
