<svg width="42" height="36" viewBox="0 0 42 36" fill="none" xmlns="http://www.w3.org/2000/svg">
<g clip-path="url(#clip0_8259_923)">
<g clip-path="url(#clip1_8259_923)">
<path d="M20.5436 31.4904C35.7563 23.5037 37.1255 17.875 36.1367 11.6377C33.8547 -2.05377 21.9127 7.22602 20.5436 8.36698C19.1744 7.30209 7.2324 -1.9777 4.95049 11.6377C3.88559 17.875 5.33081 23.5037 20.5436 31.4904Z" fill="#FF6803"/>
<path d="M39.4835 3.95526C37.5819 1.52122 34.6915 0.15207 31.3447 -5.77541e-05C26.0963 -0.228249 22.4452 3.57494 21 5.32441C19.5548 3.57494 15.9037 -0.228249 10.6553 -5.77541e-05C7.23244 0.15207 4.41808 1.52122 2.51648 3.95526C0.386693 6.6175 -0.450009 10.4968 0.234566 14.0718C0.31063 14.376 0.31063 14.6042 0.386693 14.9085C0.462757 15.2888 0.91914 15.593 1.29946 15.517C1.37552 15.517 1.52765 15.4409 1.60371 15.3648C1.90797 15.1366 8.90584 9.58399 9.59042 8.97547C9.97074 8.59515 10.8074 8.21484 11.5681 8.97547C11.7963 9.20367 11.8723 9.50792 11.8723 9.73611C11.8723 10.0404 11.7202 10.2686 11.492 10.4207L2.82074 18.5595C2.51648 18.8638 2.51648 19.3202 2.74467 19.6244C2.8968 19.7765 3.12499 19.8526 3.27712 19.8526C3.50531 19.8526 3.65744 19.7765 3.80957 19.6244L12.1766 12.018L13.6979 10.6489C14.0021 10.3446 14.4585 10.1164 14.9149 10.1164C15.2191 10.1164 15.5995 10.2686 15.7516 10.5728C16.208 11.1053 16.208 11.942 15.5995 12.4744L14.3824 13.6154L5.10265 22.1345C4.7984 22.4388 4.7984 22.8952 5.02659 23.1994C5.33084 23.5037 5.78723 23.5037 6.09148 23.2755L14.4585 15.517H14.5346L14.9149 15.2127C15.1431 15.0606 15.4473 14.9085 15.6755 14.9845C16.0558 15.0606 16.4362 15.2127 16.5883 15.517C17.0447 16.1255 16.8925 16.8861 16.208 17.5707L13.4697 20.1569L7.68882 25.5574C7.38457 25.8616 7.38457 26.318 7.68882 26.6223C7.99308 26.9265 8.44946 26.9265 8.75371 26.6223L14.2303 21.4499C14.6867 21.526 14.9909 21.9063 14.9909 22.3627C15.067 22.8952 14.3064 24.4164 13.0894 25.7856C12.4048 26.6223 10.7314 28.4478 10.7314 28.4478C10.5792 28.5999 10.5032 28.8281 10.5792 29.0563C10.5792 29.2845 10.7314 29.4366 10.8835 29.5888C14.0021 31.7946 17.1968 33.8483 20.5436 35.6739C20.7718 35.826 21.0761 35.826 21.3042 35.6739C24.6511 33.8483 27.8457 31.7946 30.9644 29.5888C31.1165 29.4366 31.2686 29.2845 31.2686 29.0563C31.2686 28.8281 31.1925 28.5999 31.1165 28.4478C31.1165 28.4478 29.4431 26.5462 28.7585 25.7856C27.5415 24.3404 26.7808 22.8191 26.8569 22.3627C26.8569 21.9063 27.1612 21.526 27.6175 21.4499L33.0941 26.6223C33.3984 26.9265 33.8548 26.9265 34.159 26.6223C34.4633 26.318 34.4633 25.8616 34.159 25.5574L28.3782 20.1569L25.7159 17.4946C25.0314 16.8861 24.8792 16.1255 25.3356 15.517C25.5638 15.2127 25.8681 14.9845 26.2484 14.9845C26.5527 14.9845 26.7808 15.0606 27.009 15.2127L27.3894 15.517H27.4654L35.9085 23.2755C36.2128 23.5797 36.6691 23.5797 36.9734 23.2755C37.2776 22.9712 37.2016 22.5148 36.8973 22.2106L27.6175 13.5393L26.4005 12.3983C25.8681 11.8659 25.792 11.0292 26.2484 10.4968C26.4766 10.2686 26.7808 10.1164 27.0851 10.0404C27.5415 10.0404 27.9979 10.2686 28.3021 10.6489L29.7473 12.018L38.0383 19.7005C38.3425 20.0047 38.7989 20.0047 39.1032 19.6244C39.4074 19.3202 39.4074 18.8638 39.0271 18.5595L30.4319 10.4968C30.2037 10.3446 30.1276 10.0404 30.1276 9.81218C30.1276 9.50792 30.2037 9.20367 30.4319 9.05154C31.1925 8.21484 32.0292 8.67122 32.4096 9.05154C33.0941 9.66005 40.092 15.1366 40.3963 15.4409C40.7005 15.6691 41.233 15.6691 41.4612 15.2888C41.5372 15.2127 41.6133 15.0606 41.6133 14.9845C41.6894 14.6803 41.7654 14.4521 41.7654 14.1478C42.45 10.4968 41.5372 6.6175 39.4835 3.95526ZM40.3202 13.3872C37.658 11.3335 33.7787 8.21484 33.3223 7.83452C32.0292 6.69356 30.4319 6.76962 29.2909 7.91058C28.9867 8.21484 28.7585 8.59515 28.6824 8.97547C28.2261 8.67122 27.6175 8.51909 27.0851 8.51909C26.3245 8.51909 25.6399 8.89941 25.1835 9.43186C24.1186 10.6489 24.2707 12.3983 25.4117 13.4632C24.8792 13.6914 24.4989 13.9957 24.1186 14.4521C23.358 15.517 23.2058 17.1143 24.6511 18.4835L26.4766 20.1569C25.8681 20.5372 25.4117 21.2218 25.4117 21.9824C25.1835 23.7319 27.4654 26.318 27.6936 26.6223C28.15 27.1547 28.9867 28.0675 29.5191 28.676C26.7808 30.5776 23.9665 32.4031 21.0761 34.0005C18.1856 32.4031 15.3713 30.5776 12.633 28.676C13.1654 28.0675 14.0021 27.1547 14.4585 26.6223C14.6867 26.318 16.9686 23.7319 16.7404 21.9824C16.6644 21.2218 16.284 20.5372 15.6755 20.1569L17.5011 18.4835C18.9463 17.1143 18.7941 15.517 18.0335 14.4521C17.7292 13.9957 17.2729 13.6914 16.7404 13.4632C17.8814 12.3983 17.9574 10.5728 16.9686 9.43186C16.4362 8.89941 15.7516 8.51909 14.9909 8.51909C14.4585 8.51909 13.85 8.67122 13.3936 8.97547C13.2415 8.59515 13.0894 8.21484 12.7851 7.91058C11.6441 6.76962 10.0468 6.69356 8.75371 7.83452C8.29733 8.21484 4.41808 11.3335 1.75584 13.3872C1.29946 10.3446 2.0601 7.14994 3.80957 4.94409C5.33084 2.89037 7.76488 1.67335 10.7314 1.52122C15.3713 1.29303 18.7181 4.94409 19.859 6.3893C20.1633 6.76962 20.3154 6.99781 20.3154 6.99781C20.4675 7.22601 20.6957 7.37813 21 7.37813C21.2282 7.37813 21.5324 7.22601 21.6085 6.99781C21.6085 6.92175 25.4117 1.1409 31.1925 1.44515C34.159 1.59728 36.5931 2.73824 38.1904 4.79196C40.0159 7.14994 40.7766 10.3446 40.3202 13.3872Z" fill="black"/>
</g>
</g>
<defs>
<clipPath id="clip0_8259_923">
<rect width="42" height="35.75" fill="white"/>
</clipPath>
<clipPath id="clip1_8259_923">
<rect width="41.9872" height="35.75" fill="white" transform="translate(0.00634766)"/>
</clipPath>
</defs>
</svg>
