<svg width="24" height="24" viewBox="0 0 24 24" fill="none" xmlns="http://www.w3.org/2000/svg">
<path d="M12 1.25635C6.05623 1.25635 1.25623 6.05635 1.25623 12.0001C1.25623 17.9438 6.07498 22.7438 12 22.7438C17.925 22.7438 22.7437 17.9251 22.7437 12.0001C22.7437 6.0751 17.925 1.25635 12 1.25635ZM17.3062 13.5001L13.5937 17.1938C12.7125 18.0751 11.2875 18.0751 10.4062 17.1938L6.69373 13.5001C5.96248 12.7688 5.56873 11.7751 5.58748 10.7626C5.60623 9.73135 6.05623 8.75635 6.84373 8.0626C7.51873 7.48135 8.39998 7.14385 9.29998 7.14385C10.3125 7.1251 11.2687 7.5001 12 8.19385C13.425 6.8251 15.6562 6.76885 17.1562 8.04385C17.925 8.7376 18.375 9.69385 18.3937 10.7251C18.4125 11.7751 18.0187 12.7688 17.3062 13.5001Z" fill="white"/>
<path d="M9.29997 8.64355C8.77497 8.64355 8.24997 8.83106 7.85622 9.16856C6.93747 9.99356 6.86247 11.4186 7.68747 12.3373C7.72497 12.3748 7.74372 12.3936 7.78122 12.4311L11.4937 16.1436C11.7937 16.4436 12.2625 16.4436 12.5437 16.1436L16.2562 12.4311C17.1375 11.5498 17.1375 10.1436 16.2562 9.26231C16.2187 9.22481 16.2 9.20606 16.1625 9.16856C15.1875 8.39981 13.8 8.49356 12.9375 9.3748L12.525 9.78731C12.225 10.0873 11.7562 10.0873 11.475 9.78731L11.0625 9.3748C10.5937 8.90605 9.95622 8.64355 9.29997 8.64355Z" fill="black"/>
</svg>
