<svg width="184" height="52" viewBox="0 0 184 52" fill="none" xmlns="http://www.w3.org/2000/svg">
<g clip-path="url(#clip0_8259_883)">
<g clip-path="url(#clip1_8259_883)">
<path d="M58.0879 18.3213C58.0879 15.6429 60.2592 13.4716 62.9376 13.4716C65.616 13.4716 67.7874 15.6429 67.7874 18.3213C67.7874 20.9997 65.616 23.171 62.9376 23.171C60.2592 23.171 58.0879 20.9997 58.0879 18.3213Z" fill="#FF2C2C"/>
<path d="M63.2313 25.3203V28.8102C63.2313 30.3564 63.2303 31.4503 63.1594 32.3049C63.0896 33.1464 62.9573 33.6591 62.7483 34.0611C62.3414 34.8443 61.7029 35.4831 60.9194 35.89C60.5174 36.0991 60.0047 36.2314 59.1632 36.3011C58.3086 36.372 57.2147 36.3731 55.6686 36.3731H52.4486C50.9024 36.3731 49.8086 36.372 48.9541 36.3011C48.1124 36.2314 47.5999 36.0991 47.1978 35.89C46.4144 35.4831 45.7757 34.8443 45.3688 34.0611C45.1599 33.6591 45.0277 33.1464 44.9577 32.3049C44.8868 31.4503 44.8859 30.3564 44.8859 28.8102V25.5903C44.8859 24.0441 44.8868 22.9503 44.9577 22.0958C45.0277 21.2541 45.1599 20.7416 45.3688 20.3395C45.7757 19.5561 46.4144 18.9174 47.1978 18.5105C47.5999 18.3016 48.1124 18.1694 48.9541 18.0995C49.8086 18.0285 50.9023 18.0276 52.4486 18.0276H55.9386C55.9697 17.2721 56.1205 16.5475 56.3725 15.8722H52.4006C50.9131 15.8722 49.7299 15.8722 48.7757 15.9514C47.7984 16.0326 46.9652 16.2024 46.2042 16.5977C45.0271 17.2092 44.0675 18.1689 43.456 19.3459C43.0607 20.1069 42.8909 20.9401 42.8097 21.9174C42.7305 22.8716 42.7305 24.0548 42.7305 25.5423V28.8581C42.7305 30.3457 42.7305 31.529 42.8097 32.4833C42.8909 33.4605 43.0607 34.2936 43.456 35.0547C44.0675 36.2316 45.0271 37.1913 46.2042 37.8029C46.9652 38.1982 47.7984 38.3679 48.7757 38.4493C49.7299 38.5285 50.9131 38.5285 52.4006 38.5285H55.7165C57.2039 38.5285 58.3873 38.5285 59.3416 38.4493C60.3188 38.3679 61.1519 38.1982 61.913 37.8029C63.0899 37.1913 64.0496 36.2316 64.6612 35.0547C65.0565 34.2936 65.2262 33.4605 65.3076 32.4833C65.3868 31.529 65.3868 30.3457 65.3868 28.8584V24.8863C64.7113 25.1383 63.9868 25.2891 63.2313 25.3203Z" fill="black"/>
<path d="M81.6591 25.1354C81.6591 25.7971 81.4996 26.4175 81.1806 26.9966C80.8734 27.5756 80.3831 28.0423 79.7095 28.3968C79.0478 28.7511 78.2088 28.9284 77.1925 28.9284H75.1187V33.6787H72.6372V21.3069H77.1925C78.1497 21.3069 78.965 21.4723 79.6386 21.8032C80.3119 22.134 80.8141 22.5889 81.145 23.1679C81.4877 23.747 81.6591 24.4028 81.6591 25.1354ZM77.086 26.9256C77.7715 26.9256 78.2796 26.772 78.6105 26.4647C78.9413 26.1457 79.1068 25.7026 79.1068 25.1354C79.1068 23.9301 78.4332 23.3275 77.086 23.3275H75.1187V26.9256H77.086Z" fill="black"/>
<path d="M85.1934 25.3835C85.5124 24.8636 85.9259 24.4559 86.4341 24.1605C86.9538 23.8651 87.5447 23.7174 88.2064 23.7174V26.3229H87.5506C86.7709 26.3229 86.18 26.5061 85.7783 26.8724C85.3882 27.2388 85.1934 27.8768 85.1934 28.7867V33.6787H82.7119V23.8592H85.1934V25.3835Z" fill="black"/>
<path d="M93.529 33.8383C92.5838 33.8383 91.733 33.6313 90.9767 33.2178C90.2204 32.7923 89.6239 32.1958 89.1866 31.4277C88.7612 30.6595 88.5486 29.7734 88.5486 28.7689C88.5486 27.7645 88.7671 26.8783 89.2044 26.1103C89.6532 25.3422 90.2619 24.7514 91.03 24.3378C91.7979 23.9124 92.6547 23.6997 93.6001 23.6997C94.5453 23.6997 95.4021 23.9124 96.1702 24.3378C96.9381 24.7514 97.5408 25.3422 97.9781 26.1103C98.427 26.8783 98.6517 27.7645 98.6517 28.7689C98.6517 29.7734 98.421 30.6595 97.9603 31.4277C97.5112 32.1958 96.8969 32.7923 96.1169 33.2178C95.3487 33.6313 94.4863 33.8383 93.529 33.8383ZM93.529 31.6758C93.9781 31.6758 94.3976 31.5694 94.7875 31.3568C95.1892 31.1324 95.5085 30.8015 95.7448 30.3642C95.9811 29.9269 96.0991 29.3953 96.0991 28.7689C96.0991 27.8354 95.8509 27.1206 95.3547 26.6243C94.8702 26.1162 94.2734 25.8621 93.5646 25.8621C92.8557 25.8621 92.2589 26.1162 91.7745 26.6243C91.3016 27.1206 91.0653 27.8354 91.0653 28.7689C91.0653 29.7025 91.2957 30.4232 91.7567 30.9314C92.2293 31.4277 92.8201 31.6758 93.529 31.6758Z" fill="black"/>
<path d="M99.1249 28.7337C99.1249 27.7411 99.3197 26.8606 99.7098 26.0926C100.112 25.3245 100.655 24.7337 101.34 24.3201C102.026 23.9065 102.788 23.6997 103.627 23.6997C104.265 23.6997 104.873 23.8415 105.452 24.1251C106.031 24.3969 106.492 24.7632 106.835 25.2241V20.5625H109.352V33.6788H106.835V32.2252C106.528 32.7096 106.096 33.0998 105.541 33.3951C104.986 33.6906 104.342 33.8383 103.609 33.8383C102.782 33.8383 102.026 33.6254 101.34 33.2003C100.655 32.7748 100.112 32.1781 99.7098 31.4099C99.3197 30.6302 99.1249 29.7378 99.1249 28.7337ZM106.853 28.769C106.853 28.1662 106.735 27.6524 106.498 27.227C106.262 26.7897 105.943 26.4589 105.541 26.2344C105.139 25.998 104.708 25.8799 104.247 25.8799C103.786 25.8799 103.361 25.9921 102.971 26.2167C102.581 26.4412 102.262 26.772 102.014 27.2092C101.778 27.6347 101.659 28.1428 101.659 28.7337C101.659 29.3243 101.778 29.8443 102.014 30.2934C102.262 30.7304 102.581 31.0672 102.971 31.3035C103.373 31.54 103.798 31.6581 104.247 31.6581C104.708 31.6581 105.139 31.546 105.541 31.3213C105.943 31.085 106.262 30.7541 106.498 30.3287C106.735 29.8917 106.853 29.3717 106.853 28.769Z" fill="black"/>
<path d="M120.337 23.8593V33.6788H117.837V32.438C117.518 32.8635 117.099 33.2003 116.579 33.4484C116.071 33.6847 115.515 33.8027 114.913 33.8027C114.145 33.8027 113.465 33.6432 112.874 33.3242C112.284 32.9933 111.817 32.5148 111.474 31.8884C111.143 31.2504 110.978 30.4941 110.978 29.6198V23.8593H113.459V29.2652C113.459 30.0452 113.654 30.6477 114.044 31.0731C114.434 31.4867 114.966 31.6936 115.639 31.6936C116.325 31.6936 116.863 31.4867 117.252 31.0731C117.642 30.6477 117.837 30.0452 117.837 29.2652V23.8593H120.337Z" fill="black"/>
<path d="M121.438 28.7689C121.438 27.7526 121.645 26.8665 122.058 26.1103C122.472 25.3422 123.045 24.7514 123.777 24.3378C124.51 23.9124 125.349 23.6997 126.294 23.6997C127.512 23.6997 128.516 24.0069 129.308 24.6214C130.111 25.224 130.649 26.0748 130.92 27.1736H128.244C128.102 26.7483 127.86 26.4175 127.517 26.1812C127.187 25.933 126.773 25.8089 126.277 25.8089C125.568 25.8089 125.006 26.0689 124.593 26.5888C124.179 27.0968 123.972 27.8238 123.972 28.7689C123.972 29.7025 124.179 30.4292 124.593 30.9492C125.006 31.4573 125.568 31.7114 126.277 31.7114C127.281 31.7114 127.937 31.2622 128.244 30.3642H130.92C130.649 31.4277 130.111 32.2726 129.308 32.8987C128.504 33.5252 127.5 33.8383 126.294 33.8383C125.349 33.8383 124.51 33.6313 123.777 33.2178C123.045 32.7923 122.472 32.2017 122.058 31.4454C121.645 30.6773 121.438 29.7852 121.438 28.7689Z" fill="black"/>
<path d="M134.918 25.8976V30.6477C134.918 30.9786 134.995 31.2208 135.149 31.3746C135.314 31.5164 135.586 31.5872 135.964 31.5872H137.116V33.6788H135.556C133.465 33.6788 132.419 32.6625 132.419 30.6302V25.8976H131.25V23.8593H132.419V21.431H134.918V23.8593H137.116V25.8976H134.918Z" fill="black"/>
<path d="M139.291 33.803C138.842 33.803 138.47 33.6669 138.174 33.3954C137.891 33.1116 137.749 32.763 137.749 32.3494C137.749 31.9359 137.891 31.5931 138.174 31.3215C138.47 31.0378 138.842 30.8961 139.291 30.8961C139.728 30.8961 140.089 31.0378 140.372 31.3215C140.656 31.5931 140.798 31.9359 140.798 32.3494C140.798 32.763 140.656 33.1116 140.372 33.3954C140.089 33.6669 139.728 33.803 139.291 33.803Z" fill="#FF2C2C"/>
</g>
</g>
<defs>
<clipPath id="clip0_8259_883">
<rect width="183.55" height="52" fill="white"/>
</clipPath>
<clipPath id="clip1_8259_883">
<rect width="183.55" height="52" fill="white"/>
</clipPath>
</defs>
</svg>
