<svg width="379" height="40" viewBox="0 0 379 40" fill="none" xmlns="http://www.w3.org/2000/svg">
<rect width="378.66" height="40" fill="#251600"/>
<g clip-path="url(#clip0_8259_1061)">
<path d="M160.817 17.6872H155.729C155.576 17.6872 155.44 17.5897 155.389 17.4449L153.67 12.4792C153.559 12.1567 153.102 12.1567 152.99 12.4792L151.27 17.4457C151.22 17.5904 151.084 17.6879 150.931 17.6879L145.842 17.7007C145.498 17.7014 145.351 18.1364 145.624 18.3457L149.668 21.4544C149.785 21.5452 149.836 21.6989 149.794 21.8414L148.338 26.7734C148.242 27.0982 148.607 27.3637 148.887 27.1717L153.127 24.2639C153.25 24.1799 153.412 24.1799 153.535 24.2639L157.775 27.1717C158.054 27.3629 158.419 27.0982 158.324 26.7727L156.868 21.8407C156.826 21.6982 156.876 21.5444 156.994 21.4537L161.039 18.3299C161.308 18.1222 161.161 17.6872 160.817 17.6872Z" fill="#FF6803"/>
</g>
<g clip-path="url(#clip1_8259_1061)">
<path d="M178.817 17.6872H173.729C173.576 17.6872 173.44 17.5897 173.389 17.4449L171.67 12.4792C171.559 12.1567 171.102 12.1567 170.99 12.4792L169.27 17.4457C169.22 17.5904 169.084 17.6879 168.931 17.6879L163.842 17.7007C163.498 17.7014 163.351 18.1364 163.624 18.3457L167.668 21.4544C167.785 21.5452 167.836 21.6989 167.794 21.8414L166.338 26.7734C166.242 27.0982 166.607 27.3637 166.887 27.1717L171.127 24.2639C171.25 24.1799 171.412 24.1799 171.535 24.2639L175.775 27.1717C176.054 27.3629 176.419 27.0982 176.324 26.7727L174.868 21.8407C174.826 21.6982 174.876 21.5444 174.994 21.4537L179.039 18.3299C179.308 18.1222 179.161 17.6872 178.817 17.6872Z" fill="#FF6803"/>
</g>
<g clip-path="url(#clip2_8259_1061)">
<path d="M196.817 17.6872H191.729C191.576 17.6872 191.44 17.5897 191.389 17.4449L189.67 12.4792C189.559 12.1567 189.102 12.1567 188.99 12.4792L187.27 17.4457C187.22 17.5904 187.084 17.6879 186.931 17.6879L181.842 17.7007C181.498 17.7014 181.351 18.1364 181.624 18.3457L185.668 21.4544C185.785 21.5452 185.836 21.6989 185.794 21.8414L184.338 26.7734C184.242 27.0982 184.607 27.3637 184.887 27.1717L189.127 24.2639C189.25 24.1799 189.412 24.1799 189.535 24.2639L193.775 27.1717C194.054 27.3629 194.419 27.0982 194.324 26.7727L192.868 21.8407C192.826 21.6982 192.876 21.5444 192.994 21.4537L197.039 18.3299C197.308 18.1222 197.161 17.6872 196.817 17.6872Z" fill="#FF6803"/>
</g>
<g clip-path="url(#clip3_8259_1061)">
<path d="M214.817 17.6872H209.729C209.576 17.6872 209.44 17.5897 209.389 17.4449L207.67 12.4792C207.559 12.1567 207.102 12.1567 206.99 12.4792L205.27 17.4457C205.22 17.5904 205.084 17.6879 204.931 17.6879L199.842 17.7007C199.498 17.7014 199.351 18.1364 199.624 18.3457L203.668 21.4544C203.785 21.5452 203.836 21.6989 203.794 21.8414L202.338 26.7734C202.242 27.0982 202.607 27.3637 202.887 27.1717L207.127 24.2639C207.25 24.1799 207.412 24.1799 207.535 24.2639L211.775 27.1717C212.054 27.3629 212.419 27.0982 212.324 26.7727L210.868 21.8407C210.826 21.6982 210.876 21.5444 210.994 21.4537L215.039 18.3299C215.308 18.1222 215.161 17.6872 214.817 17.6872Z" fill="#FF6803"/>
</g>
<g clip-path="url(#clip4_8259_1061)">
<path d="M232.817 17.6872H227.729C227.576 17.6872 227.44 17.5897 227.389 17.4449L225.67 12.4792C225.559 12.1567 225.102 12.1567 224.99 12.4792L223.27 17.4457C223.22 17.5904 223.084 17.6879 222.931 17.6879L217.842 17.7007C217.498 17.7014 217.351 18.1364 217.624 18.3457L221.668 21.4544C221.785 21.5452 221.836 21.6989 221.794 21.8414L220.338 26.7734C220.242 27.0982 220.607 27.3637 220.887 27.1717L225.127 24.2639C225.25 24.1799 225.412 24.1799 225.535 24.2639L229.775 27.1717C230.054 27.3629 230.419 27.0982 230.324 26.7727L228.868 21.8407C228.826 21.6982 228.876 21.5444 228.994 21.4537L233.039 18.3299C233.308 18.1222 233.161 17.6872 232.817 17.6872Z" fill="#FF6803"/>
</g>
<defs>
<clipPath id="clip0_8259_1061">
<rect width="18" height="18" fill="white" transform="translate(144.33 11)"/>
</clipPath>
<clipPath id="clip1_8259_1061">
<rect width="18" height="18" fill="white" transform="translate(162.33 11)"/>
</clipPath>
<clipPath id="clip2_8259_1061">
<rect width="18" height="18" fill="white" transform="translate(180.33 11)"/>
</clipPath>
<clipPath id="clip3_8259_1061">
<rect width="18" height="18" fill="white" transform="translate(198.33 11)"/>
</clipPath>
<clipPath id="clip4_8259_1061">
<rect width="18" height="18" fill="white" transform="translate(216.33 11)"/>
</clipPath>
</defs>
</svg>
