<svg width="184" height="52" viewBox="0 0 184 52" fill="none" xmlns="http://www.w3.org/2000/svg">
<g clip-path="url(#clip0_8259_855)">
<g clip-path="url(#clip1_8259_855)">
<path d="M70.5835 18.8328C70.5835 20.5837 69.1642 22.0031 67.4133 22.0031C65.6624 22.0031 64.243 20.5837 64.243 18.8328C64.243 17.082 65.6624 15.6626 67.4133 15.6626C69.1642 15.6626 70.5835 17.082 70.5835 18.8328Z" fill="#34BC85"/>
<path d="M65.7044 32.7869C59.9376 32.7869 55.2627 28.1122 55.2627 22.3454V17.3334C61.0295 17.3334 65.7046 22.0083 65.7046 27.7751L65.7044 32.7869Z" fill="#34BC85"/>
<path d="M77.1903 20.6747C71.4237 20.6747 66.7488 25.3496 66.7488 31.1164V36.1284C72.5157 36.1284 77.1903 31.4534 77.1903 25.6867V20.6747Z" fill="#34BC85"/>
<path d="M96.4977 18.7778V31.3494H93.9763V23.1724L90.6082 31.3494H88.6993L85.3133 23.1724V31.3494H82.7916V18.7778H85.6554L89.6537 28.1254L93.6521 18.7778H96.4977Z" fill="#0F5156"/>
<path d="M99.549 20.1826C99.1048 20.1826 98.7324 20.0446 98.4323 19.7684C98.1441 19.4802 98 19.126 98 18.7057C98 18.2855 98.1441 17.9373 98.4323 17.6611C98.7324 17.373 99.1048 17.2289 99.549 17.2289C99.9932 17.2289 100.359 17.373 100.648 17.6611C100.948 17.9373 101.098 18.2855 101.098 18.7057C101.098 19.126 100.948 19.4802 100.648 19.7684C100.359 20.0446 99.9932 20.1826 99.549 20.1826ZM100.792 21.3713V31.3494H98.2703V21.3713H100.792Z" fill="#0F5156"/>
<path d="M108.092 21.2273C109.281 21.2273 110.241 21.6055 110.974 22.362C111.706 23.1064 112.072 24.151 112.072 25.4958V31.3494H109.551V25.838C109.551 25.0456 109.353 24.4392 108.956 24.0189C108.56 23.5867 108.02 23.3706 107.335 23.3706C106.639 23.3706 106.087 23.5867 105.678 24.0189C105.282 24.4392 105.084 25.0456 105.084 25.838V31.3494H102.562V21.3714H105.084V22.6141C105.42 22.1819 105.847 21.8457 106.363 21.6055C106.891 21.3534 107.467 21.2273 108.092 21.2273Z" fill="#0F5156"/>
<path d="M116.685 23.4426V28.2695C116.685 28.6057 116.763 28.8518 116.92 29.0079C117.087 29.152 117.364 29.2241 117.748 29.2241H118.919V31.3494H117.334C115.209 31.3494 114.146 30.3167 114.146 28.2515V23.4426H112.275V21.3714H114.146V18.9039H116.685V21.3714V23.4426Z" fill="#0F5156"/>
<path d="M128.372 21.3713L122.195 36.0679H119.511L121.672 31.0971L117.674 21.3713H120.502L123.077 28.3415L125.689 21.3713H128.372Z" fill="#0F5156"/>
</g>
</g>
<defs>
<clipPath id="clip0_8259_855">
<rect width="183.55" height="52" fill="white"/>
</clipPath>
<clipPath id="clip1_8259_855">
<rect width="183.55" height="52" fill="white"/>
</clipPath>
</defs>
</svg>
