<svg width="24" height="24" viewBox="0 0 24 24" fill="none" xmlns="http://www.w3.org/2000/svg">
<g clip-path="url(#clip0_8259_1019)">
<path d="M11.9895 0C5.37751 0 0 5.37751 0 11.9895C0 18.6016 5.37751 23.9791 11.9895 23.9791C18.6016 23.9791 23.9791 18.6016 23.9791 11.9895C23.9791 5.37751 18.6225 0 11.9895 0ZM17.9111 13.6635L13.7681 17.8065C12.7847 18.7899 11.1944 18.7899 10.211 17.8065L6.08893 13.6635C5.27289 12.8474 4.83348 11.7384 4.8544 10.6085C4.87533 9.45772 5.37751 8.36966 6.25632 7.59547C7.00959 6.94682 7.99303 6.57018 8.99739 6.57018C10.1064 6.54926 11.1944 6.98867 12.0105 7.76286C13.6007 6.2354 16.0907 6.17262 17.7646 7.59547C18.6225 8.36966 19.1247 9.43679 19.1456 10.5876C19.1665 11.7384 18.7271 12.8474 17.9111 13.6635Z" fill="black"/>
<path d="M8.97645 8.2442C8.39058 8.2442 7.8047 8.45344 7.36529 8.83008C6.34001 9.75074 6.25631 11.341 7.17697 12.3663C7.21882 12.4081 7.23975 12.429 7.2816 12.4709L11.4246 16.6139C11.7594 16.9486 12.2825 16.9486 12.5963 16.6139L16.7393 12.4709C17.7227 11.4874 17.7227 9.91813 16.7393 8.9347C16.6975 8.89285 16.6765 8.87193 16.6347 8.83008C15.5676 7.95126 13.9982 8.05588 13.0567 9.06024L12.5963 9.52058C12.2615 9.85536 11.7384 9.85536 11.4246 9.52058L10.9642 9.06024C10.4202 8.55806 9.7088 8.2442 8.97645 8.2442Z" fill="#FF6803"/>
</g>
<defs>
<clipPath id="clip0_8259_1019">
<rect width="24" height="24" fill="white"/>
</clipPath>
</defs>
</svg>
