<svg width="184" height="52" viewBox="0 0 184 52" fill="none" xmlns="http://www.w3.org/2000/svg">
<g clip-path="url(#clip0_8259_867)">
<g clip-path="url(#clip1_8259_867)">
<path d="M38.7466 29.7113L46.2861 26.3557L50.6257 28.8725L51.5024 37.1291L46.1546 37.0849L46.9436 31.3449L46.0231 30.8151L41.5081 34.3476L38.7466 29.7113Z" fill="#B4C0D3"/>
<path d="M51.1082 28.519L57.7711 33.42L60.4011 28.6956L55.0531 26.5321V25.4724L60.4011 23.2647L57.7711 18.5845L51.1082 23.4855V28.519Z" fill="#00D3AB"/>
<path d="M50.6257 23.0883L51.5024 14.8317L46.1546 14.9199L46.9436 20.6599L46.0231 21.1897L41.4643 17.6575L38.7466 22.2494L46.2861 25.6051L50.6257 23.0883Z" fill="#4876EF"/>
<path d="M78.2424 24.9909V32.7262H81.1206V22.8683H76.9291V24.9909H78.2424Z" fill="#4876EE"/>
<path d="M78.1524 21.4832C78.4163 21.7589 78.818 21.8968 79.3577 21.8968C79.8976 21.8968 80.2931 21.7589 80.5447 21.4832C80.8089 21.1952 80.9405 20.8354 80.9405 20.4038C80.9405 19.96 80.8089 19.6002 80.5447 19.3244C80.2931 19.0367 79.8976 18.8927 79.3577 18.8927C78.818 18.8927 78.4163 19.0367 78.1524 19.3244C77.9008 19.6002 77.7748 19.96 77.7748 20.4038C77.7748 20.8354 77.9008 21.1952 78.1524 21.4832Z" fill="#4876EE"/>
<path d="M68.2229 32.5104C69.0382 32.8821 70.0396 33.0681 71.2267 33.0681C72.3422 33.0681 73.3013 32.894 74.1051 32.5463C74.9086 32.1987 75.526 31.7128 75.9578 31.0891C76.4017 30.4535 76.6234 29.716 76.6234 28.8765C76.6234 28.061 76.4139 27.3714 75.994 26.8077C75.5861 26.2321 75.0167 25.7824 74.2849 25.4587C73.5533 25.1228 72.7079 24.9129 71.7485 24.829L70.7411 24.7391C70.1415 24.691 69.7098 24.5292 69.4459 24.2533C69.182 23.9776 69.0501 23.6537 69.0501 23.282C69.0501 22.9941 69.1223 22.7303 69.2658 22.4905C69.41 22.2386 69.6257 22.0407 69.9136 21.8967C70.2134 21.7529 70.5792 21.6809 71.011 21.6809C71.4665 21.6809 71.8444 21.7648 72.1443 21.9328C72.2102 21.9683 72.2729 22.0062 72.3318 22.0465L72.346 22.0565C72.368 22.0717 72.3897 22.0875 72.4108 22.1034C72.5929 22.2427 72.738 22.4076 72.8458 22.5984C73.0015 22.8623 73.08 23.156 73.08 23.4799H75.9578C75.9578 22.6163 75.7599 21.8668 75.3644 21.2312C74.9686 20.5836 74.399 20.086 73.6555 19.7381C72.9237 19.3783 72.0423 19.1984 71.011 19.1984C70.0274 19.1984 69.1761 19.3664 68.4564 19.7021C67.737 20.026 67.1734 20.4937 66.7657 21.1052C66.3696 21.7169 66.1717 22.4425 66.1717 23.282C66.1717 24.4452 66.5618 25.3806 67.3412 26.0883C68.1206 26.7958 69.1642 27.2036 70.4713 27.3115L71.4608 27.4014C72.264 27.4734 72.8458 27.6353 73.2057 27.8871C73.5652 28.1269 73.7453 28.4567 73.7453 28.8765C73.7453 29.0694 73.7138 29.2503 73.6505 29.4193C73.6035 29.5448 73.5393 29.6637 73.4576 29.7761C73.2654 30.0277 72.9837 30.2256 72.612 30.3697C72.2402 30.5136 71.7785 30.5855 71.2267 30.5855C70.6152 30.5855 70.1174 30.5017 69.7338 30.3335C69.3499 30.1537 69.0623 29.9199 68.87 29.6321C68.6903 29.3442 68.6005 29.0325 68.6005 28.6966H65.7402C65.7402 29.5481 65.95 30.3035 66.3696 30.9631C66.7894 31.6109 67.4072 32.1265 68.2229 32.5104Z" fill="#4876EE"/>
<path d="M87.5425 32.8521C86.5471 32.8521 85.7436 32.7321 85.1321 32.4923C84.5202 32.2403 84.0707 31.8267 83.7827 31.2511C83.507 30.6634 83.3691 29.8721 83.3691 28.8765V24.9729H81.876V22.8682H83.3691V20.2059H86.0493V22.8682H88.9278V24.9729H86.0493V28.9846C86.0493 29.4523 86.1694 29.8121 86.4092 30.0637C86.6609 30.3035 87.0148 30.4236 87.4706 30.4236H88.9278V32.8521H87.5425Z" fill="#4876EE"/>
<path fill-rule="evenodd" clip-rule="evenodd" d="M92.393 32.6363C93.0404 32.924 93.7842 33.0681 94.6236 33.0681C95.4509 33.0681 96.1827 32.924 96.8183 32.6363C97.4539 32.3484 97.9816 31.9467 98.4012 31.4311C98.821 30.9153 99.103 30.3275 99.2466 29.668H96.6023C96.4825 29.9677 96.2546 30.2197 95.9189 30.4235C95.5831 30.6273 95.151 30.7293 94.6236 30.7293C94.2968 30.7293 94.0047 30.6906 93.7473 30.6134C93.5515 30.5545 93.3759 30.4734 93.2205 30.3697C92.8607 30.1296 92.5968 29.7939 92.4289 29.3623C92.3823 29.2393 92.3424 29.1107 92.3089 28.9767C92.2747 28.841 92.2471 28.6997 92.2263 28.5527H99.4266V27.5813C99.4266 26.6818 99.2347 25.8544 98.8511 25.0989C98.4671 24.3312 97.9094 23.7136 97.1781 23.2459C96.4585 22.7662 95.5709 22.5264 94.5155 22.5264C93.712 22.5264 92.9923 22.6703 92.3567 22.9581C91.7336 23.2339 91.2118 23.6117 90.792 24.0914C90.3724 24.5711 90.0485 25.1168 89.8203 25.7285C89.6046 26.328 89.4967 26.9576 89.4967 27.6172V27.977C89.4967 28.6127 89.6046 29.2362 89.8203 29.8479C90.0485 30.4476 90.3724 30.9931 90.792 31.4849C91.2237 31.9645 91.7571 32.3484 92.393 32.6363ZM92.2759 26.7739C92.2839 26.7358 92.2922 26.6983 92.3014 26.6614C92.3264 26.5597 92.3552 26.4623 92.3879 26.3691C92.4063 26.3161 92.4259 26.2644 92.447 26.2141C92.6268 25.7703 92.8907 25.4346 93.2383 25.2068C93.3685 25.1216 93.5093 25.0524 93.6606 24.9991C93.9149 24.9097 94.2002 24.8649 94.5155 24.8649C95.0075 24.8649 95.4149 24.9789 95.7388 25.2068C96.0746 25.4226 96.3265 25.7404 96.4944 26.1601C96.5081 26.194 96.5209 26.2285 96.5333 26.2634C96.5533 26.319 96.5717 26.3761 96.5889 26.4346C96.6142 26.5216 96.6365 26.6117 96.6561 26.7049C96.6703 26.7735 96.6825 26.8438 96.6935 26.9157H92.2482C92.2566 26.8677 92.2658 26.8204 92.2759 26.7739Z" fill="#4876EE"/>
<path d="M100.614 32.7262V22.8683H102.899V25.3511C102.93 25.2035 102.965 25.0619 103.005 24.926C103.039 24.8116 103.075 24.7012 103.115 24.5952C103.367 23.9236 103.744 23.42 104.248 23.0841C104.752 22.7363 105.369 22.5625 106.101 22.5625H106.227C106.971 22.5625 107.588 22.7363 108.08 23.0841C108.583 23.42 108.961 23.9236 109.213 24.5952L109.233 24.6459L109.25 24.6922C109.261 24.6595 109.273 24.6272 109.285 24.5952C109.549 23.9236 109.933 23.42 110.436 23.0841C110.94 22.7363 111.558 22.5625 112.289 22.5625H112.415C113.159 22.5625 113.782 22.7363 114.286 23.0841C114.802 23.42 115.192 23.9236 115.455 24.5952C115.719 25.2668 115.851 26.1063 115.851 27.1137V32.7262H112.973V26.9517C112.973 26.4121 112.829 25.9744 112.541 25.6386C112.265 25.3028 111.87 25.1349 111.354 25.1349C110.838 25.1349 110.43 25.3088 110.131 25.6566C109.831 25.9923 109.681 26.4421 109.681 27.0058V32.7262H106.785V26.9517C106.785 26.4121 106.641 25.9744 106.353 25.6386C106.077 25.3028 105.687 25.1349 105.184 25.1349C104.656 25.1349 104.242 25.3088 103.942 25.6566C103.643 25.9923 103.493 26.4421 103.493 27.0058V32.7262H100.614Z" fill="#4876EE"/>
<path fill-rule="evenodd" clip-rule="evenodd" d="M123.539 30.8268V32.7261H125.824V26.6819C125.824 25.7704 125.644 25.0269 125.284 24.4512C124.924 23.8636 124.397 23.4259 123.701 23.138C123.018 22.8503 122.172 22.7063 121.165 22.7063C120.947 22.7063 120.719 22.7086 120.481 22.7134C120.341 22.7163 120.197 22.7199 120.05 22.7242C119.654 22.7363 119.27 22.7542 118.898 22.7783L118.614 22.7974C118.468 22.8075 118.331 22.8175 118.203 22.8277C118.106 22.8352 118.014 22.8427 117.927 22.8503V25.2788C118.299 25.2547 118.712 25.2307 119.168 25.2068C119.296 25.2002 119.422 25.1939 119.547 25.1881C119.729 25.1797 119.907 25.1725 120.084 25.1661C120.224 25.1611 120.362 25.1566 120.499 25.1528C120.931 25.1408 121.279 25.1348 121.543 25.1348C122.07 25.1348 122.454 25.2607 122.694 25.5126C122.934 25.7645 123.054 26.1422 123.054 26.6459V26.6819H121.273C120.398 26.6819 119.624 26.7958 118.952 27.0237C118.281 27.2395 117.759 27.5813 117.387 28.049C117.015 28.5048 116.83 29.0925 116.83 29.812C116.83 30.4717 116.979 31.0413 117.279 31.5209C117.579 31.9886 117.993 32.3484 118.52 32.6001C119.06 32.8521 119.684 32.9781 120.391 32.9781C121.075 32.9781 121.651 32.8521 122.119 32.6001C122.598 32.3484 122.97 31.9886 123.234 31.5209C123.28 31.4422 123.323 31.3604 123.364 31.2755C123.421 31.1554 123.472 31.0288 123.517 30.8966L123.539 30.8268ZM123.054 29.0745V28.2829H121.255C120.751 28.2829 120.362 28.4088 120.086 28.6607C119.822 28.9005 119.69 29.2303 119.69 29.6501C119.69 29.8477 119.723 30.0272 119.788 30.1891C119.855 30.3513 119.954 30.4955 120.086 30.6214C120.362 30.8615 120.751 30.9813 121.255 30.9813C121.351 30.9813 121.443 30.9765 121.533 30.967C121.606 30.9596 121.677 30.9486 121.746 30.9346C121.878 30.9076 122.002 30.8693 122.119 30.8193C122.382 30.6996 122.598 30.5017 122.766 30.2256C122.934 29.9499 123.03 29.5661 123.054 29.0745Z" fill="#4876EE"/>
<path d="M127.547 32.7261V22.8682H129.831V26.122C129.941 25.1932 130.217 24.4442 130.659 23.8756C131.258 23.1201 132.122 22.7423 133.249 22.7423H133.627V25.2247H132.907C132.116 25.2247 131.504 25.4405 131.072 25.8723C130.641 26.2921 130.425 26.9037 130.425 27.7072V32.7261H127.547Z" fill="#4876EE"/>
<path d="M137.277 28.121H138.23L141.342 32.7261H144.58L140.634 27.0705L143.879 22.8682H140.857L137.277 27.5556V19.5942H134.399V32.7261H137.277V28.121Z" fill="#4876EE"/>
</g>
</g>
<defs>
<clipPath id="clip0_8259_867">
<rect width="183.55" height="52" fill="white"/>
</clipPath>
<clipPath id="clip1_8259_867">
<rect width="183.55" height="52" fill="white"/>
</clipPath>
</defs>
</svg>
