<svg width="42" height="45" viewBox="0 0 42 45" fill="none" xmlns="http://www.w3.org/2000/svg">
<path d="M21.9667 8.1333C22.9667 9.19997 24.2333 10.0333 25.4 10.8C26.1667 11.3 26.8334 11.8333 27.2667 12.4C27.7 12.9666 27.9667 13.5333 27.9667 14.3333C27.9667 15.1333 27.5667 15.9333 26.8333 16.6H17.0667C16.3334 15.9333 15.9333 15.1333 15.9333 14.3333C15.9333 13.5666 16.1667 13 16.6 12.4333C17.2667 11.6 18.4 10.8333 19.6334 10.0666C20.4667 9.49997 21.2667 8.86663 21.9667 8.1333Z" fill="#FF6803"/>
<path d="M9.96669 18.1333C11.1 19.4333 12.6 20.4 13.9334 21.3666C15.6667 22.6 16.9 23.7333 16.9 25.7C16.9 26.7666 16.4 27.7333 15.5 28.5666H4.30002C3.40002 27.7333 2.90002 26.7333 2.90002 25.7C2.90002 24.7333 3.20002 24.0333 3.70002 23.3333C4.46669 22.3 5.83336 21.4 7.20002 20.4666C8.23336 19.8333 9.20003 19.0666 9.96669 18.1333Z" fill="#FF6803"/>
<path d="M33.9667 18.1333C35.1 19.4333 36.6 20.4 37.9334 21.3666C39.6667 22.6 40.9 23.7333 40.9 25.7C40.9 26.7666 40.4 27.7333 39.5 28.5666H28.3C27.4 27.7333 26.9 26.7666 26.9 25.7C26.9 24.7333 27.2 24.0333 27.7 23.3333C28.4667 22.3 29.8334 21.4 31.2 20.4666C32.2334 19.8333 33.2 19.0666 33.9667 18.1333Z" fill="#FF6803"/>
<path d="M20 0V2H18V4H20V5.76667C19.6 6.4 18.7 7.06667 17.6 7.76667C16.4 8.53333 15.0667 9.33333 14.0667 10.6C13.4333 11.4333 13 12.5 13 13.7C13 15.2667 13.8 16.6333 15 17.6667V19.7667C14.7333 19.5667 14.4333 19.3333 14.1667 19.1333C12.4 17.9 10.6667 16.8667 10 15.8V14H12V12H10V10H8V12H6V14H8V15.7667C7.5 16.6 6.46667 17.4 5.2 18.2333C3.83333 19.1333 2.3 20.1 1.2 21.5667C0.5 22.5333 0 23.7333 0 25.1333C0 26.8 0.8 28.3 2 29.4667V45H40V29.4333C41.2 28.3 42 26.7667 42 25.1C42 22.2333 40.0333 20.4667 38.1667 19.1333C36.4 17.8667 34.6667 16.8333 34 15.7667V14H36V12H34V10H32V12H30V14H32V15.7667C31.5 16.6 30.4667 17.4 29.2 18.2333C28.5 18.7 27.7333 19.2 27 19.7667V17.6667C28.2 16.6667 29 15.2667 29 13.7C29 12.4333 28.5333 11.3667 27.9 10.5333C27.2333 9.7 26.4 9.06667 25.6 8.5C24.0667 7.46667 22.5667 6.56667 22.0333 5.73333V4H24.0333V2H22.0333V0H20ZM21.0333 7.53333C22.0333 8.6 23.3 9.43333 24.4667 10.2C25.2333 10.7 25.9 11.2333 26.3333 11.8C26.7667 12.3667 27.0333 12.9333 27.0333 13.7333C27.0333 14.5333 26.6333 15.3333 25.9 16H16.1333C15.4 15.3333 15 14.5333 15 13.7333C15 12.9667 15.2333 12.4 15.6667 11.8333C16.3333 11 17.4667 10.2333 18.7 9.46667C19.5333 8.9 20.3333 8.26667 21.0333 7.53333ZM9.03333 17.5667C10.1667 18.8667 11.6667 19.8333 13 20.8C14.7333 22.0333 15.9667 23.1667 15.9667 25.1333C15.9667 26.2 15.4667 27.1667 14.5667 28H3.36667C2.5 27.1667 2 26.2 2 25.1333C2 24.1667 2.3 23.4667 2.8 22.7667C3.56667 21.7333 4.93333 20.8333 6.3 19.9C7.3 19.2333 8.26667 18.4667 9.03333 17.5667ZM33.0333 17.5667C34.1667 18.8667 35.6667 19.8333 37 20.8C38.7333 22.0333 39.9667 23.1667 39.9667 25.1333C39.9667 26.2 39.4667 27.1667 38.5667 28H27.3667C26.4667 27.1667 25.9667 26.2 25.9667 25.1333C25.9667 24.1667 26.2667 23.4667 26.7667 22.7667C27.5333 21.7333 28.9 20.8333 30.2667 19.9C31.3 19.2333 32.2667 18.4667 33.0333 17.5667ZM17 18H25V21.8667C24.4 22.7667 24 23.8667 24 25.1333C24 26.8 24.8 28.3 26 29.4667V36.8333H28V30H38V43H4V30H14V36.8H16V29.4333C17.2 28.3 18 26.7667 18 25.1C18 23.8333 17.6 22.7667 17 21.8667V18ZM21 30C20.4333 30 20 30.4333 20 31V36H22V31C22 30.4333 21.5667 30 21 30ZM9 34C8.43333 34 8 34.4333 8 35V40H10V35C10 34.4333 9.56667 34 9 34ZM33 34C32.4333 34 32 34.4333 32 35V40H34V35C34 34.4333 33.5667 34 33 34Z" fill="black"/>
</svg>
