<svg width="24" height="24" viewBox="0 0 24 24" fill="none" xmlns="http://www.w3.org/2000/svg">
<path d="M12.0001 1.25626C6.05635 1.25626 1.25635 6.05626 1.25635 12C1.25635 17.9438 6.0751 22.7438 12.0001 22.7438C17.9251 22.7438 22.7438 17.925 22.7438 12C22.7438 6.07501 17.9251 1.25626 12.0001 1.25626ZM17.3063 13.5L13.5938 17.1938C12.7126 18.075 11.2876 18.075 10.4063 17.1938L6.69385 13.5C5.9626 12.7688 5.56885 11.775 5.5876 10.7625C5.60635 9.73126 6.05635 8.75626 6.84385 8.06251C7.51885 7.48126 8.4001 7.14376 9.3001 7.14376C10.3126 7.12501 11.2688 7.50001 12.0001 8.19376C13.4251 6.82501 15.6563 6.76876 17.1563 8.04376C17.9251 8.73751 18.3751 9.69376 18.3938 10.725C18.4126 11.775 18.0188 12.7688 17.3063 13.5Z" fill="white"/>
<path d="M9.29997 8.64374C8.77497 8.64374 8.24997 8.83124 7.85622 9.16874C6.93747 9.99374 6.86247 11.4187 7.68747 12.3375C7.72497 12.375 7.74372 12.3937 7.78122 12.4312L11.4937 16.1437C11.7937 16.4437 12.2625 16.4437 12.5437 16.1437L16.2562 12.4312C17.1375 11.55 17.1375 10.1437 16.2562 9.26249C16.2187 9.22499 16.2 9.20624 16.1625 9.16874C15.1875 8.39999 13.8 8.49374 12.9375 9.37499L12.525 9.78749C12.225 10.0875 11.7562 10.0875 11.475 9.78749L11.0625 9.37499C10.5937 8.90624 9.95622 8.64374 9.29997 8.64374Z" fill="#FF6803"/>
</svg>
