<svg width="184" height="52" viewBox="0 0 184 52" fill="none" xmlns="http://www.w3.org/2000/svg">
<g clip-path="url(#clip0_8259_827)">
<g clip-path="url(#clip1_8259_827)">
<path d="M61.7676 35.5025L63.2338 35.1358V19.4983L61.7676 19.1318V18.7653H68.3648C70.8407 18.7653 72.6571 19.1643 73.8135 19.9625C74.9864 20.7444 75.5727 21.7706 75.5727 23.0412C75.5727 23.9207 75.3201 24.6293 74.8153 25.1669C74.3104 25.7045 73.667 26.1036 72.885 26.364C72.0543 26.6573 71.1583 26.8121 70.1972 26.8284V26.9505C71.3864 26.9993 72.4208 27.1786 73.3005 27.4881C74.1963 27.7814 74.9374 28.2374 75.5238 28.8564C76.1266 29.4755 76.428 30.2654 76.428 31.2265C76.428 32.6762 75.8334 33.8165 74.6441 34.6472C73.4551 35.4616 71.5248 35.869 68.8534 35.869H61.7676V35.5025ZM68.3648 26.584C68.9024 26.584 69.3991 26.4375 69.8552 26.1443C70.3277 25.8348 70.7023 25.4113 70.9793 24.8737C71.2725 24.3198 71.419 23.7091 71.419 23.0412C71.419 22.3244 71.2725 21.6892 70.9793 21.1353C70.7023 20.5815 70.3277 20.1498 69.8552 19.8403C69.3991 19.5309 68.9024 19.3761 68.3648 19.3761H67.2653V26.584H68.3648ZM68.8534 35.2581C69.8633 35.2581 70.686 34.8997 71.3213 34.183C71.9566 33.4663 72.2741 32.4808 72.2741 31.2265C72.2741 29.9722 71.9566 28.9867 71.3213 28.27C70.686 27.5533 69.8633 27.1949 68.8534 27.1949H67.2653V35.2581H68.8534Z" fill="#1A1B6C"/>
<path d="M76.9088 35.5025L78.375 35.1358V19.4983L76.9088 19.1318V18.7653H80.0853C81.5513 18.7653 82.2843 19.4983 82.2843 20.9643V35.1358L83.7504 35.5025V35.869H76.9088V35.5025Z" fill="#1A1B6C"/>
<path d="M90.4659 36.2354C88.446 36.2354 86.8577 35.6652 85.7013 34.5251C84.5609 33.3684 83.991 31.7804 83.991 29.7605C83.991 27.7407 84.5609 26.1605 85.7013 25.0204C86.8577 23.8637 88.446 23.2854 90.4659 23.2854C92.4857 23.2854 94.0656 23.8637 95.206 25.0204C96.3624 26.1605 96.9408 27.7407 96.9408 29.7605C96.9408 31.7804 96.3624 33.3684 95.206 34.5251C94.0656 35.6652 92.4857 36.2354 90.4659 36.2354ZM90.4659 35.7466C91.1174 35.7466 91.663 35.2906 92.103 34.3784C92.559 33.4663 92.7871 31.9269 92.7871 29.7605C92.7871 27.5939 92.559 26.0547 92.103 25.1425C91.663 24.2302 91.1174 23.7742 90.4659 23.7742C89.8143 23.7742 89.2604 24.2302 88.8044 25.1425C88.3644 26.0547 88.1446 27.5939 88.1446 29.7605C88.1446 31.9269 88.3644 33.4663 88.8044 34.3784C89.2604 35.2906 89.8143 35.7466 90.4659 35.7466Z" fill="#1A1B6C"/>
<path d="M103.424 36.2354C102.414 36.2354 101.51 36.0155 100.712 35.5757C100.321 35.3639 100.004 35.1357 99.7592 34.8916C99.4985 35.2499 99.2136 35.5269 98.9041 35.7222C98.7574 35.8199 98.5946 35.9096 98.4153 35.991H97.8044V31.8374H98.7818C98.9937 32.5215 99.3032 33.1568 99.7104 33.7431C100.574 34.9974 101.649 35.6245 102.936 35.6245C103.62 35.6245 104.133 35.4615 104.475 35.1357C104.833 34.7937 105.013 34.3051 105.013 33.6698C105.013 33.1324 104.768 32.6843 104.28 32.3259C103.807 31.9513 103.058 31.4953 102.032 30.9577C101.152 30.5179 100.435 30.127 99.8815 29.7849C99.3439 29.4266 98.8797 28.9866 98.4886 28.4655C98.114 27.9279 97.9268 27.3007 97.9268 26.584C97.9268 25.6066 98.3421 24.8167 99.1727 24.2139C100.02 23.5949 101.315 23.2854 103.058 23.2854C103.921 23.2854 104.719 23.5135 105.452 23.9695C105.811 24.1814 106.12 24.4014 106.381 24.6293C106.592 24.336 106.878 24.0593 107.236 23.7986C107.513 23.6356 107.676 23.5461 107.725 23.5298H108.336V27.6835H107.358C107.114 26.9831 106.812 26.3559 106.454 25.8022C105.64 24.5316 104.67 23.8963 103.546 23.8963C103.107 23.8963 102.732 24.0593 102.422 24.3851C102.113 24.7109 101.958 25.1181 101.958 25.6066C101.958 26.2257 102.219 26.747 102.74 27.1705C103.262 27.5777 104.051 28.05 105.11 28.5876C105.974 29.0273 106.658 29.4185 107.163 29.7605C107.684 30.0863 108.124 30.4935 108.482 30.9821C108.857 31.4709 109.044 32.0408 109.044 32.6924C109.044 35.0544 107.171 36.2354 103.424 36.2354Z" fill="#1A1B6C"/>
<path d="M115.398 36.2354C114.388 36.2354 113.484 36.0155 112.686 35.5757C112.295 35.3639 111.977 35.1357 111.733 34.8916C111.472 35.2499 111.187 35.5269 110.878 35.7222C110.731 35.8199 110.568 35.9096 110.389 35.991H109.778V31.8374H110.755C110.967 32.5215 111.277 33.1568 111.684 33.7431C112.547 34.9974 113.622 35.6245 114.909 35.6245C115.593 35.6245 116.106 35.4615 116.449 35.1357C116.807 34.7937 116.986 34.3051 116.986 33.6698C116.986 33.1324 116.742 32.6843 116.253 32.3259C115.781 31.9513 115.031 31.4953 114.005 30.9577C113.126 30.5179 112.409 30.127 111.855 29.7849C111.318 29.4266 110.853 28.9866 110.462 28.4655C110.088 27.9279 109.9 27.3007 109.9 26.584C109.9 25.6066 110.316 24.8167 111.146 24.2139C111.994 23.5949 113.288 23.2854 115.031 23.2854C115.895 23.2854 116.693 23.5135 117.426 23.9695C117.784 24.1814 118.094 24.4014 118.354 24.6293C118.566 24.336 118.851 24.0593 119.21 23.7986C119.486 23.6356 119.649 23.5461 119.698 23.5298H120.309V27.6835H119.332C119.087 26.9831 118.786 26.3559 118.428 25.8022C117.613 24.5316 116.644 23.8963 115.52 23.8963C115.08 23.8963 114.706 24.0593 114.396 24.3851C114.087 24.7109 113.932 25.1181 113.932 25.6066C113.932 26.2257 114.192 26.747 114.714 27.1705C115.235 27.5777 116.025 28.05 117.084 28.5876C117.947 29.0273 118.631 29.4185 119.136 29.7605C119.657 30.0863 120.097 30.4935 120.456 30.9821C120.83 31.4709 121.018 32.0408 121.018 32.6924C121.018 35.0544 119.144 36.2354 115.398 36.2354Z" fill="#1A1B6C"/>
<path d="M128.104 36.2354C126.084 36.2354 124.496 35.6652 123.34 34.5251C122.199 33.3684 121.629 31.7804 121.629 29.7605C121.629 27.7407 122.199 26.1605 123.34 25.0204C124.496 23.8637 126.084 23.2854 128.104 23.2854C130.124 23.2854 131.704 23.8637 132.844 25.0204C134.001 26.1605 134.579 27.7407 134.579 29.7605C134.579 31.7804 134.001 33.3684 132.844 34.5251C131.704 35.6652 130.124 36.2354 128.104 36.2354ZM128.104 35.7466C128.756 35.7466 129.302 35.2906 129.741 34.3784C130.198 33.4663 130.425 31.9269 130.425 29.7605C130.425 27.5939 130.198 26.0547 129.741 25.1425C129.302 24.2302 128.756 23.7742 128.104 23.7742C127.453 23.7742 126.899 24.2302 126.443 25.1425C126.003 26.0547 125.783 27.5939 125.783 29.7605C125.783 31.9269 126.003 33.4663 126.443 34.3784C126.899 35.2906 127.453 35.7466 128.104 35.7466Z" fill="#1A1B6C"/>
<path d="M135.321 35.5025L136.787 35.1357V24.3851L135.321 24.0186V23.6519H137.52C138.481 23.6519 139.238 23.9614 139.792 24.5804C140.004 24.8248 140.183 25.1262 140.33 25.4845C140.574 25.0285 140.835 24.6618 141.112 24.3851C141.845 23.6519 142.684 23.2854 143.628 23.2854C144.573 23.2854 145.404 23.4972 146.121 23.9207C146.837 24.3279 147.391 24.8899 147.782 25.6066C148.026 25.1343 148.287 24.7516 148.564 24.4583C149.313 23.6765 150.152 23.2854 151.081 23.2854C151.944 23.2854 152.718 23.4647 153.402 23.823C154.102 24.1814 154.64 24.67 155.014 25.289C155.405 25.908 155.601 26.584 155.601 27.317V35.1357L157.067 35.5025V35.8689H153.891C152.424 35.8689 151.691 35.1357 151.691 33.6698V27.317C151.691 26.2582 151.529 25.4683 151.203 24.9469C150.877 24.4095 150.511 24.1407 150.103 24.1407C149.631 24.1407 149.15 24.4665 148.662 25.1181C148.466 25.4276 148.295 25.7534 148.149 26.0954V35.1357L149.615 35.5025V35.8689H142.773V35.5025L144.239 35.1357V27.317C144.239 26.2582 144.076 25.4683 143.751 24.9469C143.425 24.4095 143.058 24.1407 142.651 24.1407C142.179 24.1407 141.698 24.4665 141.209 25.1181C141.014 25.4276 140.843 25.7534 140.696 26.0954V35.1357L142.162 35.5025V35.8689H135.321V35.5025Z" fill="#1A1B6C"/>
<path fill-rule="evenodd" clip-rule="evenodd" d="M41.8796 40.5342C41.722 40.5654 41.5585 40.5756 41.3928 40.5631C36.2747 40.1747 31.4303 37.3477 28.6702 32.5669C25.91 27.7861 25.8839 22.1771 28.1068 17.5505C28.4295 16.8788 29.1291 16.4749 29.8722 16.5313C31.7795 16.676 33.6488 17.1593 35.3864 17.9563C36.6975 15.3998 38.6373 13.2189 41.0017 11.6177C41.6187 11.1999 42.4258 11.1999 43.0428 11.6177C45.3751 13.1972 47.2941 15.3407 48.6043 17.8524C50.276 17.1172 52.0641 16.6696 53.8871 16.5313C54.6302 16.4749 55.3297 16.8788 55.6524 17.5505C57.8752 22.1771 57.8492 27.7861 55.0892 32.5669C52.3289 37.3477 47.4845 40.1747 42.3664 40.5631C42.2006 40.5756 42.0372 40.5654 41.8796 40.5342ZM45.6295 37.6362C48.6975 36.5928 51.411 34.4753 53.1568 31.4514C55.4808 27.4261 55.5565 22.7195 53.765 18.7811C52.2941 18.9238 50.8541 19.3 49.5035 19.894C50.1623 21.7066 50.5218 23.6629 50.5218 25.7031C50.5218 30.3531 48.6547 34.5671 45.6295 37.6362ZM46.629 18.8898C45.5345 16.7886 43.9487 14.9829 42.0223 13.6243C40.0544 15.012 38.4422 16.8661 37.3457 19.0252C39.0908 20.1412 40.6411 21.6091 41.8796 23.3979C43.169 21.5359 44.7961 20.0214 46.629 18.8898ZM43.1436 25.5618C44.2648 23.6496 45.7746 22.1043 47.5159 20.9692C48.0185 22.4554 48.2907 24.0475 48.2907 25.7031C48.2907 29.5254 46.8397 33.0091 44.4543 35.6333C45.0997 32.3184 44.7093 28.7879 43.1436 25.5618ZM40.6155 25.5618C39.545 23.7355 38.1195 22.244 36.4768 21.1248C36.0073 22.5664 35.7537 24.1051 35.7537 25.7031C35.7537 29.3293 37.0596 32.651 39.2305 35.223C38.6938 32.0284 39.1143 28.6551 40.6155 25.5618ZM41.8796 36.7237C42.7172 34.0604 42.7516 31.1548 41.8796 28.4003C41.0076 31.1548 41.0422 34.0604 41.8796 36.7237ZM30.6024 31.4514C32.4276 34.6128 35.3104 36.7832 38.55 37.7716C35.4452 34.6917 33.5226 30.422 33.5226 25.7031C33.5226 23.7043 33.8676 21.7861 34.5012 20.0048C33.0799 19.3466 31.5547 18.9325 29.9942 18.7811C28.2028 22.7195 28.2784 27.4261 30.6024 31.4514Z" fill="#EF898B"/>
</g>
</g>
<defs>
<clipPath id="clip0_8259_827">
<rect width="183.55" height="52" fill="white"/>
</clipPath>
<clipPath id="clip1_8259_827">
<rect width="183.55" height="52" fill="white"/>
</clipPath>
</defs>
</svg>
