<svg width="42" height="54" viewBox="0 0 42 54" fill="none" xmlns="http://www.w3.org/2000/svg">
<g clip-path="url(#clip0_8259_943)">
<g clip-path="url(#clip1_8259_943)">
<g clip-path="url(#clip2_8259_943)">
<path d="M6.63235 0C2.98516 0 0.00109863 2.98406 0.00109863 6.63125V43.5821C0.00109863 47.0819 3.13252 49.7344 6.63235 49.7344V47.524C4.23773 47.524 2.21152 45.7188 2.21152 43.5821C2.21152 41.4453 4.20089 39.7875 6.63235 39.7875H41.999V0H6.63235ZM30.9469 37.5771H6.63235C4.97454 37.5771 3.42724 38.1665 2.21152 39.1612V6.63125C2.21152 4.16295 4.16405 2.21042 6.63235 2.21042H30.9469V37.5771ZM39.7886 37.5771H33.1573V2.21042H39.7886V37.5771Z" fill="black"/>
<path d="M8.84277 41.9979V51.9448C8.84277 52.5711 9.3217 53.05 9.94798 53.05C10.169 53.05 10.4269 52.9763 10.6111 52.829L14.3688 49.9923L18.1265 52.829C18.6054 53.1974 19.3054 53.0868 19.6738 52.6079C19.8212 52.4237 19.8949 52.1658 19.8949 51.9448V41.9979" fill="#FF6803"/>
<path d="M41.999 47.5239H22.1052V49.7343H41.999V47.5239Z" fill="black"/>
</g>
</g>
</g>
<defs>
<clipPath id="clip0_8259_943">
<rect width="42" height="53.05" fill="white"/>
</clipPath>
<clipPath id="clip1_8259_943">
<rect width="42" height="53.05" fill="white"/>
</clipPath>
<clipPath id="clip2_8259_943">
<rect width="41.9979" height="53.05" fill="white" transform="translate(0.00109863)"/>
</clipPath>
</defs>
</svg>
