<svg width="42" height="43" viewBox="0 0 42 43" fill="none" xmlns="http://www.w3.org/2000/svg">
<g clip-path="url(#clip0_8259_933)">
<g clip-path="url(#clip1_8259_933)">
<path d="M2.7421 13.3282C1.9844 13.3282 1.32711 13.6843 0.843281 14.1681C0.359447 14.6519 0.00341797 15.3092 0.00341797 16.0669V27.9985C0.00341797 29.7056 0.195126 30.7828 0.596799 31.6135C0.998473 32.4443 1.54621 32.9281 2.0483 33.4758C3.05248 34.6717 9.34233 42.2122 9.34233 42.2122C9.51578 42.4222 9.77139 42.5409 10.0453 42.5409C10.4195 42.5409 10.7664 42.3126 10.9034 41.9566C11.0403 41.6006 10.949 41.1989 10.666 40.9433C10.5382 40.7881 4.40357 33.4393 3.41764 32.2708C3.40851 32.2617 3.39938 32.2525 3.39026 32.2434C2.82426 31.6226 2.46823 31.3031 2.23088 30.8102C1.99353 30.3263 1.82008 29.5504 1.82008 27.9893V16.0669C1.82008 15.9117 1.9205 15.6561 2.12133 15.4553C2.32217 15.2545 2.57778 15.154 2.73297 15.154C2.88816 15.154 3.14377 15.2545 3.34461 15.4553C3.54545 15.6561 3.64587 15.9117 3.64587 16.0669V27.0217C3.64587 27.2681 3.74628 27.4964 3.91061 27.6698L4.80524 28.5645C4.86002 29.2583 5.21604 29.8881 5.73639 30.4085C6.01939 30.6915 9.3332 33.9597 11.2046 35.8767C11.4329 36.1141 11.7706 36.2145 12.0901 36.1323C12.4096 36.0502 12.6653 35.8037 12.7474 35.4933C12.8296 35.1738 12.7474 34.836 12.5101 34.5987C10.6112 32.6542 7.24267 29.3313 7.02357 29.1122C6.67667 28.7653 6.60364 28.5462 6.60364 28.391C6.60364 28.2358 6.66755 28.0167 7.02357 27.6698C7.3796 27.3229 7.58957 27.2499 7.74476 27.2499C7.89995 27.2499 8.11905 27.3138 8.46595 27.6698C8.88588 28.0897 13.4869 32.6816 13.9342 33.1381C13.9342 33.1381 13.9433 33.1472 13.9524 33.1563C15.7782 34.9456 16.4173 36.5888 16.4173 39.8113V41.6371C16.4173 41.9657 16.5816 42.2761 16.8737 42.4404C17.1567 42.6048 17.5127 42.6048 17.7957 42.4404C18.0787 42.2761 18.2522 41.9657 18.2522 41.6371V39.8113C18.2522 36.3149 17.3575 33.9231 15.2396 31.86C14.6828 31.294 10.1822 26.8026 9.77139 26.3918C9.20539 25.8258 8.51159 25.4424 7.75389 25.4424C6.99619 25.4424 6.30239 25.8349 5.73639 26.3918C5.6451 26.4831 5.57207 26.5835 5.48991 26.6839L5.47165 26.6656V16.0669C5.47165 15.3092 5.11563 14.6519 4.63179 14.1681C4.14796 13.6843 3.4998 13.3282 2.7421 13.3282ZM39.2579 13.3282C38.5002 13.3282 37.8429 13.6843 37.3591 14.1681C36.8752 14.6519 36.5192 15.3092 36.5192 16.0669V26.6474L36.5009 26.6656C36.4188 26.5652 36.3366 26.4648 36.2544 26.3735C35.6885 25.8075 34.9947 25.4241 34.2369 25.4241C33.4792 25.4241 32.7854 25.8166 32.2195 26.3735C31.8087 26.7843 27.3081 31.2757 26.7512 31.8417C24.6333 33.914 23.7387 36.3058 23.7387 39.7931V41.6188C23.7387 41.9475 23.903 42.2579 24.1951 42.4222C24.4781 42.5865 24.8341 42.5865 25.1171 42.4222C25.4001 42.2579 25.5736 41.9475 25.5736 41.6188V39.7931C25.5736 36.5797 26.2126 34.9365 28.0384 33.1381C28.0384 33.1381 28.0475 33.1289 28.0567 33.1198C28.504 32.6633 33.105 28.0715 33.5249 27.6516C33.8718 27.3047 34.0909 27.2316 34.2461 27.2316C34.4013 27.2316 34.6204 27.2955 34.9673 27.6516C35.3142 28.0076 35.3872 28.2176 35.3872 28.3727C35.3872 28.5279 35.3233 28.747 34.9673 29.0939C34.7573 29.3039 31.3796 32.636 29.4808 34.5804C29.2434 34.8086 29.1521 35.1464 29.2434 35.4751C29.3256 35.7946 29.5812 36.0411 29.9007 36.1141C30.2202 36.1962 30.558 36.0958 30.7862 35.8585C32.6576 33.9414 35.9715 30.6732 36.2544 30.3902C36.7748 29.8699 37.1308 29.24 37.1856 28.5462L38.0802 27.6516C38.2537 27.4781 38.345 27.2499 38.345 27.0034V16.0669C38.345 15.9117 38.4454 15.6561 38.6462 15.4553C38.8471 15.2545 39.1027 15.154 39.2579 15.154C39.4131 15.154 39.6687 15.2545 39.8695 15.4553C40.0703 15.6561 40.1708 15.9117 40.1708 16.0669V27.9985C40.1708 29.5595 39.9882 30.3355 39.76 30.8193C39.5317 31.3123 39.1757 31.6226 38.6006 32.2525C38.5915 32.2617 38.5823 32.2708 38.5732 32.2799C37.5781 33.4667 31.2518 41.0437 31.2518 41.0437C31.0236 41.3176 30.9779 41.6919 31.124 42.0114C31.27 42.3309 31.5987 42.5409 31.9547 42.5409C32.2742 42.5409 32.5755 42.3765 32.7398 42.1118C32.8859 41.9292 38.9475 34.6626 39.9517 33.485C40.4538 32.9281 41.0015 32.4534 41.4032 31.6226C41.8048 30.7919 41.9966 29.7147 41.9966 28.0076V16.0669C41.9966 15.3092 41.6405 14.6519 41.1567 14.1681C40.6729 13.6843 40.0156 13.3282 39.2579 13.3282Z" fill="black"/>
<path d="M20.4066 4.71057L27.0251 8.60863V19.1708H13.7881V8.60863L20.4066 4.71057Z" fill="#FF6803"/>
<path d="M20.8721 0.127805C20.7261 0.0456447 20.5709 0 20.4065 0C20.2422 0 20.087 0.0456447 19.941 0.127805L6.71313 7.90566V10.0236L9.45182 8.40776V22.8224C9.45182 23.3244 9.86262 23.7353 10.3647 23.7353H30.4484C30.9505 23.7353 31.3613 23.3244 31.3613 22.8224V8.41688L34.1 10.0327V7.90566L20.8721 0.127805ZM29.5355 21.9095H11.2776V7.33967L20.4065 1.97185L29.5355 7.33967V21.9095Z" fill="black"/>
</g>
</g>
<defs>
<clipPath id="clip0_8259_933">
<rect width="42" height="42.55" fill="white"/>
</clipPath>
<clipPath id="clip1_8259_933">
<rect width="41.9931" height="42.55" fill="white" transform="translate(0.00341797)"/>
</clipPath>
</defs>
</svg>
