<svg width="20" height="20" viewBox="0 0 20 20" fill="none" xmlns="http://www.w3.org/2000/svg">
<g clip-path="url(#clip0_8259_1271)">
<path d="M14.0556 0.138672C19.4445 0.138672 19.8611 0.555339 19.8611 5.94423V14.0553C19.8611 19.4442 19.4445 19.8609 14.0556 19.8609H5.94447C0.555583 19.8609 0.138916 19.4442 0.138916 14.0553V5.94423C0.138916 0.555339 0.555583 0.138672 5.94447 0.138672H14.0556ZM6.56947 15.4303V7.40256H4.06947V15.4303H6.56947ZM5.31947 6.24978C6.12503 6.24978 6.7778 5.597 6.7778 4.79145C6.7778 3.98589 6.12503 3.33312 5.31947 3.33312C4.51392 3.33312 3.86114 3.98589 3.86114 4.79145C3.86114 5.597 4.51392 6.24978 5.31947 6.24978ZM15.9167 15.4303V11.0276C15.9167 8.86089 15.4445 7.20812 12.9306 7.20812C11.7222 7.20812 10.9028 7.87478 10.5695 8.49978H10.5417V7.40256H8.13892V15.4303H10.625V11.4581C10.625 10.4164 10.8195 9.40256 12.125 9.40256C13.4028 9.40256 13.4167 10.597 13.4167 11.5276V15.4303H15.9167Z" fill="black"/>
</g>
<defs>
<clipPath id="clip0_8259_1271">
<rect width="20" height="20" fill="white"/>
</clipPath>
</defs>
</svg>
