<svg width="20" height="20" viewBox="0 0 20 20" fill="none" xmlns="http://www.w3.org/2000/svg">
<g clip-path="url(#clip0_8291_1247)">
<path d="M14.0553 0.138916C19.4442 0.138916 19.8609 0.555583 19.8609 5.94447V14.0556C19.8609 19.4445 19.4442 19.8611 14.0553 19.8611H5.94423C0.555339 19.8611 0.138672 19.4445 0.138672 14.0556V5.94447C0.138672 0.555583 0.555339 0.138916 5.94423 0.138916H14.0553ZM6.56923 15.4306V7.4028H4.06923V15.4306H6.56923ZM5.31923 6.25003C6.12478 6.25003 6.77756 5.59725 6.77756 4.79169C6.77756 3.98614 6.12478 3.33336 5.31923 3.33336C4.51367 3.33336 3.86089 3.98614 3.86089 4.79169C3.86089 5.59725 4.51367 6.25003 5.31923 6.25003ZM15.9164 15.4306V11.0278C15.9164 8.86114 15.4442 7.20836 12.9303 7.20836C11.722 7.20836 10.9026 7.87503 10.5692 8.50003H10.5414V7.4028H8.13867V15.4306H10.6248V11.4584C10.6248 10.4167 10.8192 9.4028 12.1248 9.4028C13.4026 9.4028 13.4164 10.5972 13.4164 11.5278V15.4306H15.9164Z" fill="black"/>
</g>
<defs>
<clipPath id="clip0_8291_1247">
<rect width="20" height="20" fill="white"/>
</clipPath>
</defs>
</svg>
