<svg width="20" height="20" viewBox="0 0 20 20" fill="none" xmlns="http://www.w3.org/2000/svg">
<path fill-rule="evenodd" clip-rule="evenodd" d="M18.3337 3.33252C17.6837 3.71835 16.3795 4.24419 15.6128 4.39585C15.5903 4.40169 15.572 4.40919 15.5503 4.41502C14.8728 3.74669 13.9445 3.33252 12.917 3.33252C10.8462 3.33252 9.16699 5.01169 9.16699 7.08252C9.16699 7.19169 9.15783 7.39252 9.16699 7.49919C6.37283 7.49919 4.24616 6.03585 2.72116 4.16585C2.55533 4.58252 2.48283 5.24085 2.48283 5.85919C2.48283 7.02669 3.39533 8.17335 4.81616 8.88419C4.55449 8.95169 4.26616 9.00002 3.96616 9.00002C3.48199 9.00002 2.96949 8.87252 2.50033 8.48585C2.50033 8.50002 2.50033 8.51335 2.50033 8.52835C2.50033 10.16 4.23199 11.2709 5.77199 11.58C5.45949 11.7642 4.82949 11.7825 4.52199 11.7825C4.30533 11.7825 3.53866 11.6834 3.33366 11.645C3.76199 12.9825 5.30699 13.7342 6.77949 13.7609C5.62783 14.6642 4.82866 14.9992 2.47033 14.9992H1.66699C3.15699 15.9542 5.05449 16.6667 6.95616 16.6667C13.1478 16.6667 16.667 11.9475 16.667 7.49919C16.667 7.42752 16.6653 7.27752 16.6628 7.12669C16.6628 7.11169 16.667 7.09752 16.667 7.08252C16.667 7.06002 16.6603 7.03835 16.6603 7.01585C16.6578 6.90252 16.6553 6.79669 16.6528 6.74169C17.3112 6.26669 17.882 5.67419 18.3337 4.99919C17.7295 5.26752 17.0812 5.44752 16.4003 5.52919C17.0953 5.11252 18.0828 4.11919 18.3337 3.33252Z" fill="#151515"/>
</svg>
