<svg width="24" height="24" viewBox="0 0 24 24" fill="none" xmlns="http://www.w3.org/2000/svg">
<path d="M11.9996 1.25626C6.05586 1.25626 1.25586 6.05626 1.25586 12C1.25586 17.9438 6.07461 22.7438 11.9996 22.7438C17.9246 22.7438 22.7434 17.925 22.7434 12C22.7434 6.07501 17.9246 1.25626 11.9996 1.25626ZM17.3059 13.5L13.5934 17.1938C12.7121 18.075 11.2871 18.075 10.4059 17.1938L6.69336 13.5C5.96211 12.7688 5.56836 11.775 5.58711 10.7625C5.60586 9.73126 6.05586 8.75626 6.84336 8.06251C7.51836 7.48126 8.39961 7.14376 9.29961 7.14376C10.3121 7.12501 11.2684 7.50001 11.9996 8.19376C13.4246 6.82501 15.6559 6.76876 17.1559 8.04376C17.9246 8.73751 18.3746 9.69376 18.3934 10.725C18.4121 11.775 18.0184 12.7688 17.3059 13.5Z" fill="white"/>
<path d="M9.30046 8.64374C8.77546 8.64374 8.25046 8.83124 7.85671 9.16874C6.93796 9.99374 6.86296 11.4187 7.68796 12.3375C7.72546 12.375 7.74421 12.3937 7.78171 12.4312L11.4942 16.1437C11.7942 16.4437 12.263 16.4437 12.5442 16.1437L16.2567 12.4312C17.138 11.55 17.138 10.1437 16.2567 9.26249C16.2192 9.22499 16.2005 9.20624 16.163 9.16874C15.188 8.39999 13.8005 8.49374 12.938 9.37499L12.5255 9.78749C12.2255 10.0875 11.7567 10.0875 11.4755 9.78749L11.063 9.37499C10.5942 8.90624 9.95671 8.64374 9.30046 8.64374Z" fill="#FF6803"/>
</svg>
