<svg width="20" height="20" viewBox="0 0 20 20" fill="none" xmlns="http://www.w3.org/2000/svg">
<g clip-path="url(#clip0_8279_2882)">
<path d="M14.0556 0.138916C19.4445 0.138916 19.8611 0.555583 19.8611 5.94447V14.0556C19.8611 19.4445 19.4445 19.8611 14.0556 19.8611H5.94447C0.555583 19.8611 0.138916 19.4445 0.138916 14.0556V5.94447C0.138916 0.555583 0.555583 0.138916 5.94447 0.138916H14.0556ZM6.56947 15.4306V7.4028H4.06947V15.4306H6.56947ZM5.31947 6.25003C6.12503 6.25003 6.7778 5.59725 6.7778 4.79169C6.7778 3.98614 6.12503 3.33336 5.31947 3.33336C4.51392 3.33336 3.86114 3.98614 3.86114 4.79169C3.86114 5.59725 4.51392 6.25003 5.31947 6.25003ZM15.9167 15.4306V11.0278C15.9167 8.86114 15.4445 7.20836 12.9306 7.20836C11.7222 7.20836 10.9028 7.87503 10.5695 8.50003H10.5417V7.4028H8.13892V15.4306H10.625V11.4584C10.625 10.4167 10.8195 9.4028 12.125 9.4028C13.4028 9.4028 13.4167 10.5972 13.4167 11.5278V15.4306H15.9167Z" fill="black"/>
</g>
<defs>
<clipPath id="clip0_8279_2882">
<rect width="20" height="20" fill="white"/>
</clipPath>
</defs>
</svg>
