<svg width="184" height="52" viewBox="0 0 184 52" fill="none" xmlns="http://www.w3.org/2000/svg">
<g clip-path="url(#clip0_8279_2778)">
<g clip-path="url(#clip1_8279_2778)">
<path d="M44.3424 18.3976C45.6993 17.1021 47.5418 16.346 49.4092 16.2519C50.0483 16.2519 50.6893 16.2558 51.3284 16.25C51.2958 16.9352 51.3284 17.6222 51.3092 18.3074C51.219 19.8389 50.6528 21.3359 49.699 22.5373C48.4592 24.1533 46.563 25.2376 44.5497 25.5179C43.6707 25.6599 42.7783 25.5697 41.8935 25.5946C41.9089 24.8404 41.8609 24.0842 41.9204 23.3319C42.0932 21.4664 42.9741 19.6796 44.3424 18.3976Z" fill="#FFC100"/>
<path d="M51.9199 16.25C52.6051 16.2577 53.2903 16.2462 53.9773 16.2538C55.6874 16.3747 57.3743 17.0311 58.662 18.1692C60.0823 19.3879 61.0553 21.1306 61.3049 22.9922C61.4141 23.8558 61.3452 24.7291 61.3875 25.5965C60.7885 25.5946 60.1918 25.5927 59.5928 25.5965C58.1209 25.5562 56.6738 25.0803 55.4417 24.2781C54.8736 23.8712 54.2901 23.4586 53.8641 22.8943C52.9294 21.8503 52.2942 20.5394 52.0543 19.1576C51.8739 18.198 51.9468 17.2192 51.9199 16.25Z" fill="#FFC100"/>
<path d="M41.8948 26.1454C42.5032 26.1799 43.1135 26.1166 43.72 26.1838C46.3166 26.2394 48.8366 27.698 50.1819 29.9185C50.9535 31.1622 51.368 32.6362 51.3143 34.1006C51.3123 34.5803 51.32 35.0581 51.3066 35.5362C50.3432 35.5072 49.3701 35.5859 48.4163 35.3997C46.2975 35.0428 44.3495 33.7818 43.1768 31.9817C42.2882 30.6728 41.8449 29.0741 41.891 27.4946C41.891 27.0436 41.891 26.5945 41.8948 26.1454Z" fill="#FFC100"/>
<path d="M58.1449 26.3487C59.1891 26.1165 60.2655 26.1548 61.3269 26.1548L61.3731 26.2009C61.35 27.2046 61.4287 28.2199 61.2272 29.2121C60.803 31.4384 59.3292 33.4269 57.3465 34.5189C56.1125 35.2059 54.6961 35.5436 53.2855 35.5283C52.8345 35.5303 52.3815 35.5205 51.9305 35.5342C51.9305 34.7031 51.896 33.8682 51.99 33.0411C52.2088 31.0392 53.2912 29.1757 54.8477 27.9167C55.8111 27.1567 56.9435 26.6059 58.1449 26.3487Z" fill="#FFC100"/>
<path d="M69.2516 31.8189C69.2516 32.1567 69.1346 32.4426 68.9009 32.6765C68.6799 32.8975 68.4004 33.008 68.0628 33.008C67.7378 33.008 67.4648 32.8975 67.2441 32.6765C67.0231 32.4426 66.9126 32.1567 66.9126 31.8189V19.7723C66.9126 19.4344 67.0231 19.155 67.2441 18.9341C67.4778 18.7002 67.7638 18.5833 68.1018 18.5833C68.4394 18.5833 68.7124 18.7002 68.9204 18.9341C69.1411 19.155 69.2516 19.4344 69.2516 19.7723V31.8189Z" fill="black"/>
<path d="M78.6408 22.5792C78.9784 22.5792 79.2579 22.6962 79.4789 22.9301C79.6996 23.151 79.8101 23.4304 79.8101 23.7683V28.7194C79.8101 30.0969 79.4269 31.1885 78.6603 31.9942C77.8933 32.7999 76.7889 33.2029 75.3462 33.2029C73.9039 33.2029 72.7992 32.7999 72.0325 31.9942C71.2789 31.1885 70.9019 30.0969 70.9019 28.7194V23.7683C70.9019 23.4304 71.0124 23.151 71.2334 22.9301C71.4544 22.6962 71.7335 22.5792 72.0715 22.5792C72.4095 22.5792 72.6887 22.6962 72.9097 22.9301C73.1307 23.151 73.2412 23.4304 73.2412 23.7683V28.7194C73.2412 29.5122 73.4167 30.1034 73.7674 30.4933C74.1184 30.8702 74.6446 31.0586 75.3462 31.0586C76.0612 31.0586 76.5939 30.8702 76.9449 30.4933C77.2956 30.1034 77.4711 29.5122 77.4711 28.7194V23.7683C77.4711 23.4304 77.5816 23.151 77.8026 22.9301C78.0233 22.6962 78.3028 22.5792 78.6408 22.5792Z" fill="black"/>
<path d="M86.8452 22.3844C87.8849 22.3844 88.6516 22.6378 89.1456 23.1446C89.6392 23.6384 89.9642 24.2817 90.1199 25.0744L89.7887 24.899L89.9447 24.5871C90.1004 24.2882 90.3409 23.9698 90.6659 23.6319C90.9906 23.2811 91.3806 22.9887 91.8353 22.7548C92.3033 22.5078 92.8229 22.3844 93.3949 22.3844C94.3306 22.3844 95.0388 22.5858 95.5195 22.9887C96.0135 23.3915 96.3511 23.9308 96.5331 24.6066C96.7151 25.2693 96.8061 26.0101 96.8061 26.8287V31.8189C96.8061 32.1568 96.6957 32.4427 96.4747 32.6765C96.2537 32.8975 95.9745 33.008 95.6365 33.008C95.2988 33.008 95.0193 32.8975 94.7983 32.6765C94.5773 32.4427 94.4668 32.1568 94.4668 31.8189V26.8287C94.4668 26.3999 94.4151 26.0166 94.3111 25.6787C94.2071 25.3278 94.0186 25.0484 93.7456 24.8405C93.4729 24.6326 93.0829 24.5286 92.5763 24.5286C92.0823 24.5286 91.6601 24.6326 91.3091 24.8405C90.9581 25.0484 90.6919 25.3278 90.5099 25.6787C90.3409 26.0166 90.2564 26.3999 90.2564 26.8287V31.8189C90.2564 32.1568 90.1459 32.4427 89.9252 32.6765C89.7042 32.8975 89.4248 33.008 89.0871 33.008C88.7491 33.008 88.4696 32.8975 88.2489 32.6765C88.0279 32.4427 87.9174 32.1568 87.9174 31.8189V26.8287C87.9174 26.3999 87.8654 26.0166 87.7614 25.6787C87.6574 25.3278 87.4689 25.0484 87.1962 24.8405C86.9232 24.6326 86.5332 24.5286 86.0265 24.5286C85.5329 24.5286 85.1104 24.6326 84.7594 24.8405C84.4087 25.0484 84.1422 25.3278 83.9602 25.6787C83.7915 26.0166 83.707 26.3999 83.707 26.8287V31.8189C83.707 32.1568 83.5965 32.4427 83.3755 32.6765C83.1545 32.8975 82.8754 33.008 82.5374 33.008C82.1994 33.008 81.9202 32.8975 81.6992 32.6765C81.4782 32.4427 81.3677 32.1568 81.3677 31.8189V23.7684C81.3677 23.4305 81.4782 23.1511 81.6992 22.9302C81.9202 22.6963 82.1994 22.5793 82.5374 22.5793C82.8754 22.5793 83.1545 22.6963 83.3755 22.9302C83.5965 23.1511 83.707 23.4305 83.707 23.7684V24.6066L83.4145 24.5481C83.5315 24.3272 83.694 24.0932 83.9017 23.8463C84.1097 23.5864 84.3632 23.346 84.6622 23.1251C84.9609 22.9042 85.2924 22.7288 85.656 22.5988C86.02 22.4559 86.4165 22.3844 86.8452 22.3844Z" fill="black"/>
<path d="M100.566 31.8188C100.566 32.1567 100.455 32.4426 100.234 32.6764C100.014 32.8974 99.7343 33.008 99.3963 33.008C99.0586 33.008 98.7791 32.8974 98.5581 32.6764C98.3375 32.4426 98.227 32.1567 98.227 31.8188V23.7683C98.227 23.4304 98.3375 23.151 98.5581 22.9301C98.7791 22.6962 99.0586 22.5793 99.3963 22.5793C99.7343 22.5793 100.014 22.6962 100.234 22.9301C100.455 23.151 100.566 23.4304 100.566 23.7683V31.8188ZM99.3768 21.3122C98.9351 21.3122 98.6231 21.2407 98.4411 21.0978C98.2595 20.9548 98.1685 20.7014 98.1685 20.3376V19.9672C98.1685 19.5904 98.266 19.3369 98.4606 19.207C98.6686 19.0641 98.9806 18.9926 99.3963 18.9926C99.8513 18.9926 100.17 19.0641 100.351 19.207C100.533 19.3499 100.624 19.6033 100.624 19.9672V20.3376C100.624 20.7144 100.527 20.9743 100.332 21.1173C100.137 21.2472 99.8188 21.3122 99.3768 21.3122Z" fill="black"/>
<path d="M107.57 22.3844C108.532 22.3844 109.26 22.5858 109.753 22.9887C110.26 23.3915 110.604 23.9308 110.786 24.6066C110.981 25.2693 111.079 26.0101 111.079 26.8287V31.8189C111.079 32.1568 110.968 32.4427 110.747 32.6765C110.526 32.8975 110.247 33.008 109.909 33.008C109.572 33.008 109.292 32.8975 109.071 32.6765C108.85 32.4427 108.74 32.1568 108.74 31.8189V26.8287C108.74 26.3999 108.681 26.0166 108.564 25.6787C108.46 25.3278 108.265 25.0484 107.979 24.8405C107.694 24.6326 107.284 24.5286 106.751 24.5286C106.231 24.5286 105.79 24.6326 105.426 24.8405C105.075 25.0484 104.802 25.3278 104.607 25.6787C104.425 26.0166 104.334 26.3999 104.334 26.8287V31.8189C104.334 32.1568 104.224 32.4427 104.003 32.6765C103.782 32.8975 103.502 33.008 103.165 33.008C102.827 33.008 102.547 32.8975 102.327 32.6765C102.106 32.4427 101.995 32.1568 101.995 31.8189V23.7684C101.995 23.4305 102.106 23.1511 102.327 22.9302C102.547 22.6963 102.827 22.5793 103.165 22.5793C103.502 22.5793 103.782 22.6963 104.003 22.9302C104.224 23.1511 104.334 23.4305 104.334 23.7684V24.6066L104.042 24.5481C104.159 24.3272 104.328 24.0932 104.549 23.8463C104.77 23.5864 105.03 23.346 105.328 23.1251C105.627 22.9042 105.965 22.7288 106.342 22.5988C106.719 22.4559 107.128 22.3844 107.57 22.3844Z" fill="black"/>
<path d="M122.652 27.8034C122.652 28.869 122.411 29.8112 121.931 30.6298C121.463 31.4356 120.826 32.0658 120.02 32.5205C119.228 32.9755 118.338 33.203 117.35 33.203C116.362 33.203 115.466 32.9755 114.66 32.5205C113.867 32.0658 113.231 31.4356 112.75 30.6298C112.282 29.8112 112.048 28.869 112.048 27.8034C112.048 26.7378 112.282 25.8021 112.75 24.9964C113.231 24.1777 113.867 23.541 114.66 23.0861C115.466 22.6183 116.362 22.3844 117.35 22.3844C118.338 22.3844 119.228 22.6183 120.02 23.0861C120.826 23.541 121.463 24.1777 121.931 24.9964C122.411 25.8021 122.652 26.7378 122.652 27.8034ZM120.313 27.8034C120.313 27.1406 120.176 26.5688 119.903 26.088C119.643 25.5942 119.286 25.2109 118.831 24.938C118.39 24.6651 117.896 24.5286 117.35 24.5286C116.804 24.5286 116.304 24.6651 115.849 24.938C115.407 25.2109 115.05 25.5942 114.777 26.088C114.517 26.5688 114.387 27.1406 114.387 27.8034C114.387 28.4532 114.517 29.025 114.777 29.5188C115.05 29.9996 115.407 30.3764 115.849 30.6493C116.304 30.9222 116.804 31.0587 117.35 31.0587C117.896 31.0587 118.39 30.9222 118.831 30.6493C119.286 30.3764 119.643 29.9996 119.903 29.5188C120.176 29.025 120.313 28.4532 120.313 27.8034Z" fill="black"/>
<path d="M131.37 22.5792C131.708 22.5792 131.987 22.6962 132.208 22.9301C132.429 23.151 132.54 23.4304 132.54 23.7683V28.7194C132.54 30.0969 132.156 31.1885 131.389 31.9942C130.623 32.7999 129.518 33.2029 128.076 33.2029C126.633 33.2029 125.529 32.7999 124.762 31.9942C124.008 31.1885 123.631 30.0969 123.631 28.7194V23.7683C123.631 23.4304 123.742 23.151 123.963 22.9301C124.184 22.6962 124.463 22.5792 124.801 22.5792C125.139 22.5792 125.418 22.6962 125.639 22.9301C125.86 23.151 125.971 23.4304 125.971 23.7683V28.7194C125.971 29.5122 126.146 30.1034 126.497 30.4933C126.848 30.8702 127.374 31.0586 128.076 31.0586C128.79 31.0586 129.323 30.8702 129.674 30.4933C130.025 30.1034 130.201 29.5122 130.201 28.7194V23.7683C130.201 23.4304 130.311 23.151 130.532 22.9301C130.753 22.6962 131.032 22.5792 131.37 22.5792Z" fill="black"/>
<path d="M133.493 31.3901C133.363 31.2081 133.305 30.9742 133.318 30.6883C133.331 30.4024 133.5 30.1555 133.825 29.9476C134.032 29.8176 134.253 29.7657 134.487 29.7917C134.721 29.8047 134.949 29.9216 135.17 30.1425C135.547 30.5194 135.943 30.8118 136.359 31.0197C136.774 31.2276 137.294 31.3316 137.918 31.3316C138.113 31.3186 138.327 31.2926 138.561 31.2536C138.795 31.2017 138.997 31.0977 139.165 30.9417C139.347 30.7728 139.438 30.5194 139.438 30.1815C139.438 29.8956 139.341 29.6682 139.146 29.4993C138.951 29.3303 138.691 29.1874 138.366 29.0704C138.055 28.9535 137.704 28.843 137.314 28.7391C136.911 28.6221 136.495 28.4922 136.066 28.3492C135.65 28.2063 135.267 28.0243 134.916 27.8034C134.565 27.5695 134.279 27.2641 134.058 26.8872C133.838 26.5104 133.727 26.036 133.727 25.4643C133.727 24.8145 133.909 24.2622 134.273 23.8074C134.637 23.3525 135.105 23.0017 135.676 22.7548C136.261 22.5078 136.872 22.3844 137.509 22.3844C137.912 22.3844 138.334 22.4364 138.776 22.5403C139.217 22.6313 139.64 22.7872 140.043 23.0082C140.446 23.2161 140.784 23.4955 141.056 23.8463C141.199 24.0413 141.284 24.2752 141.31 24.5481C141.336 24.821 141.212 25.0679 140.939 25.2888C140.745 25.4448 140.517 25.5162 140.257 25.5032C139.997 25.4773 139.783 25.3863 139.614 25.2304C139.393 24.9445 139.094 24.717 138.717 24.5481C138.353 24.3792 137.931 24.2947 137.45 24.2947C137.255 24.2947 137.041 24.3207 136.807 24.3727C136.586 24.4117 136.391 24.5091 136.222 24.6651C136.053 24.808 135.969 25.0419 135.969 25.3668C135.969 25.6657 136.066 25.9061 136.261 26.088C136.456 26.257 136.716 26.3999 137.041 26.5169C137.379 26.6208 137.736 26.7248 138.113 26.8287C138.503 26.9327 138.899 27.0562 139.302 27.1991C139.705 27.3421 140.075 27.5305 140.413 27.7644C140.751 27.9983 141.024 28.3037 141.232 28.6806C141.44 29.0444 141.544 29.5123 141.544 30.084C141.544 30.7468 141.349 31.3121 140.959 31.7799C140.569 32.2478 140.082 32.605 139.497 32.852C138.912 33.086 138.314 33.203 137.704 33.203C136.937 33.203 136.17 33.073 135.404 32.813C134.637 32.54 134 32.0658 133.493 31.3901Z" fill="black"/>
</g>
</g>
<defs>
<clipPath id="clip0_8279_2778">
<rect width="183.55" height="52" fill="white"/>
</clipPath>
<clipPath id="clip1_8279_2778">
<rect width="183.55" height="52" fill="white"/>
</clipPath>
</defs>
</svg>
